<?xml version="1.0" encoding="UTF-8"?> <!-- Generator: Adobe Illustrator 27.7.0, SVG Export Plug-In . SVG Version: 6.00 Build 0) --> <svg xmlns="http://www.w3.org/2000/svg" xmlns:xlink="http://www.w3.org/1999/xlink" id="Layer_2_00000036216699009465786440000007718503007234912679_" x="0px" y="0px" viewBox="0 0 882.8 290.2" style="enable-background:new 0 0 882.8 290.2;" xml:space="preserve"> <style type="text/css"> .st0{fill:url(#SVGID_1_);} .st1{fill:url(#SVGID_00000169533571996561719720000018306412700927029670_);} .st2{fill:url(#SVGID_00000127751974304474449790000008330997103846634386_);} .st3{fill:url(#SVGID_00000034788999983172245140000015374911951601289601_);} .st4{fill:url(#SVGID_00000102516368254181610550000001945208941509110192_);} .st5{fill:url(#SVGID_00000027584238781347711900000017142180858948527260_);} .st6{fill:url(#SVGID_00000035503772044956679300000009048037555275113655_);} </style> <g> <linearGradient id="SVGID_1_" gradientUnits="userSpaceOnUse" x1="-0.5" y1="62.4255" x2="196.27" y2="62.4255"> <stop offset="0" style="stop-color:#0E1231"></stop> <stop offset="0" style="stop-color:#124B8B"></stop> <stop offset="1" style="stop-color:#06192D"></stop> </linearGradient> <path class="st0" d="M196.1,67.9c-0.2-0.2-0.4-0.4-0.8-0.4c-0.5,0-0.8,0.5-1.1,0.9c-9.2,13.4-15.7,20.2-19.3,20.2 c-1.5,0-2.1-0.7-2.1-2.1c0-0.9,1-3.6,5.9-11.1c4.1-6.4,6.1-10.8,6.1-13.5c0-2.2-0.7-4.2-1.9-5.9c-1.3-1.7-3.1-2.6-5.3-2.6 c-3.1,0-6.8,2.4-11.3,7.4c-0.9,1-2.2,2.6-3.7,4.7c0.8-1.9,1.2-3.5,1.2-4.9c0-1.8-0.5-3.4-1.5-4.9c-1.1-1.5-2.5-2.3-4.2-2.3 c-1.5,0-4.6,1.4-13.7,13.3l-1.1,1.5c-0.3,0.3-0.4,0.6-0.4,0.9c0,0.5,0.4,0.9,0.9,0.9c0.3,0,0.7-0.2,1.3-1.1 C152.7,57.4,156,55,157.4,55c0.5,0,1.1,0.2,1.1,1.5c0,1.2-1,4.3-5.3,11.6c-0.1-0.2-0.2-0.4-0.5-0.5l-0.1-0.1h-0.1c0,0-0.1,0-0.1,0 l-0.1-0.1v0.1c-0.3,0.1-0.7,0.3-1,0.9l-1.2,1.4l-2,2.8c-7.7,10.6-13.1,16-16.2,16c-1.6,0-2.3-0.7-2.3-2.3c0-1,1.1-3.8,6.2-11.4 c3.9-5.6,5.8-9.9,5.8-13c0-2.2-0.7-4.2-1.9-5.9c-1.3-1.8-3.1-2.7-5.3-2.7c-3.6,0-7.9,3.1-13.2,9.5c2.3-3.8,3.8-6.3,4.6-7.5 l20.5-32.9l-1.1,0.2c-1.5,0.3-3,0.4-4.8,0.4c-0.8,0-1.9-0.1-3.2-0.4l-0.4-0.1l-9.8,17c-7.1,11.9-11.2,18.9-13.2,22.1 c-3,5.3-4.9,8.9-5.9,10.8L93.4,96.4c-0.8-0.4-1.5-0.9-2.1-1.5c-1.8-1.7-2.7-4.1-2.7-6.9c0-11.7,15-38.2,44.6-78.8l0.1-0.1V8.4 l-0.6,0.1c-2.5,0.4-4.6,0.7-6.1,0.7c-0.2,0-1.5-0.1-3.8-0.3l-0.3,0l-0.2,0.3C109.5,29,98.9,44.4,90.8,54.9 c-17.8,23.2-30.9,35-39.2,35c-1.9,0-3.4-0.6-4.6-1.9c-1.2-1.3-1.8-2.9-1.8-4.8c0-2.8,1.4-6.3,4-10.5c0.8-1.3,3.1-4.3,7-9.5 c9.4-12.3,14.5-19.1,15.1-20.1c5.6-8.6,8.5-16.6,8.5-23.2c0-6.5-1.9-11.6-5.6-15.1c-3.7-3.5-8.9-5.3-15.4-5.3 c-5.9,0-12.5,1.6-19.7,4.6c-6.3,2.7-12.1,6.2-17.4,10.3C7,26.1-0.5,39.2-0.5,53.4c0,5.9,1.6,10.9,4.8,14.8c3.2,4,7.8,6,13.6,6 c9,0,17.9-5.2,26.5-15.5c8.1-9.9,12.2-19.6,12.2-28.8c0-3.4-0.8-6.3-2.5-8.6c-1.9-2.5-4.6-3.8-8-3.8c-2.6,0-4.9,0.9-7,2.6 C37.1,21.8,36,24,36,26.6c0,3.1,1.5,4.7,4.5,4.7c1.5,0,2.9-0.6,4-1.7s1.7-2.4,1.7-4c0-2.4-1.3-3.6-3.8-3.7c0,0,0,0,0,0v0.1 c-0.1,0-0.5,0.1-2.1,0.4c0-0.9,1.2-1.6,2.2-2c1.2-0.5,2.4-0.8,3.5-0.8c5.8,0,8.6,3.3,8.6,10.2c0,8.6-4,17.8-11.7,27.2 C34.7,67,26.3,72,17.9,72c-4.5,0-8-1.5-10.6-4.3C4.8,64.8,3.5,61,3.5,56.4c0-13,6-25.5,18-37.1C33.4,7.6,46,1.7,59,1.7 c4.6,0,8.4,1,11.3,2.9c3.4,2.3,5,5.6,5,9.9c0,5.2-2,11.1-6,17.5c-1,1.5-5.1,6.9-11.4,15.3c-6.4,8.4-9.8,13.1-11,14.8 c-4.2,6.6-6.3,12.3-6.3,17.2c0,3.5,0.9,6.6,2.7,9c1.9,2.5,4.6,3.8,8,3.8c4.9,0,11-3.2,18.1-9.4c6.3-5.4,13.6-13.6,21.7-24.5 c-5.1,9.6-7.7,17.7-7.7,24.1c0,4.6,1.3,8.6,3.9,12c1.4,1.8,3,3.1,4.8,4l-16.1,27l1.3-0.5c1.3-0.5,2.7-0.8,4-0.8 c0.9,0,2.1,0.2,3.5,0.7l0.4,0.1l15.7-25.7c3.6-0.7,7.5-2.9,11.7-6.5c2.1-1.9,2.4-2.6,2.4-3c0-0.8-0.5-1-0.9-1 c-0.4,0-0.9,0.3-1.3,0.8c-3.4,3.8-6.9,6.2-10.4,7.3l4.3-7.1c7.6-13.8,13.4-23,17.1-27.2c4.3-5,7.7-7.5,10.1-7.5 c1.5,0,2.1,0.6,2.1,2c0,0.9-1.3,3.9-7.6,13.2c-3.3,5-5,8.9-5,12c0,2.3,0.7,4.3,2,5.9c1.4,1.6,3.2,2.4,5.5,2.4 c4.1,0,10.1-5.5,18.5-16.9l1.2-1.7c-0.3,0.5-0.6,0.9-0.9,1.4l-10,15.9l-21.7,36.2l1.4-0.5c1.3-0.5,2.6-0.8,4-0.8 c0.9,0,2.1,0.2,3.5,0.7l0.4,0.1l21.4-35.2c12.9-23,22.5-34.6,28.6-34.6c1.6,0,2.3,0.7,2.3,2.1c0,0.9-0.9,3.4-5.2,9.6 c-4.6,6.9-4.7,7.1-4.8,7.1c-1.8,3.1-2.7,5.8-2.7,8.3c0,2.2,0.7,4.2,2,5.8c1.4,1.7,3.2,2.5,5.3,2.5c3.1,0,7.1-3,12.4-9.3 c9.5-11.4,9.5-12.4,9.5-12.8l0-0.5H196.1z"></path> <linearGradient id="SVGID_00000165939771480071996730000006954415552508806846_" gradientUnits="userSpaceOnUse" x1="199.4658" y1="73.6635" x2="309.9214" y2="73.6635"> <stop offset="0" style="stop-color:#0E1231"></stop> <stop offset="0" style="stop-color:#124B8B"></stop> <stop offset="1" style="stop-color:#06192D"></stop> </linearGradient> <path style="fill:url(#SVGID_00000165939771480071996730000006954415552508806846_);" d="M308.9,22.7c-1.8,0.2-3.3,0.3-4.3,0.3 c-0.9,0-1.9-0.1-3.2-0.4l-0.4-0.1l-24.7,42.1c-9.3,15.9-16.2,24-20.4,24c-1,0-2-0.3-2-2.4c0-1.9,0.8-4.1,2.3-6.6l15.7-26l-1,0.1 c-2.1,0.3-3.5,0.4-4.3,0.4c-0.7,0-1.8-0.1-3.4-0.4l-0.3-0.1L254.5,68c-0.1,0.1-0.2,0.2-0.2,0.3c-9.2,13.4-15.7,20.2-19.3,20.2 c-1.5,0-2.1-0.7-2.1-2.1c0-0.9,1-3.6,5.9-11.1c4.1-6.4,6.1-10.8,6.1-13.5c0-2.2-0.7-4.2-1.9-5.9c-1.3-1.7-3.1-2.6-5.3-2.6 c-3.1,0-6.8,2.4-11.3,7.4c-0.9,1-2.1,2.6-3.7,4.7c0.8-1.9,1.2-3.5,1.2-4.9c0-1.8-0.5-3.4-1.5-4.9c-1.1-1.5-2.5-2.3-4.2-2.3 c-1.5,0-4.6,1.4-13.7,13.3L203,68c-0.3,0.3-0.4,0.6-0.4,0.9c0,0.5,0.4,0.9,0.9,0.9c0.3,0,0.7-0.2,1.3-1.1 C212.7,57.4,216,55,217.4,55c0.5,0,1.1,0.2,1.1,1.5c0,1.5-1.5,5.6-8.5,16.7L199.5,90h9.2l0.1-0.3c12.8-23,22.4-34.7,28.5-34.7 c1.6,0,2.3,0.7,2.3,2.1c0,0.9-0.9,3.4-5.2,9.6c-4.6,6.7-4.8,7.1-4.8,7.1c-1.8,3.1-2.7,5.8-2.7,8.3c0,2.2,0.7,4.2,2,5.8 c1.4,1.7,3.2,2.5,5.3,2.5c3.1,0,7.1-3,12.4-9.3c0.8-0.9,1.4-1.7,2.1-2.5c-0.4,1.3-0.6,2.5-0.6,3.7c0,2.1,0.7,4,2,5.6 c1.3,1.7,3.1,2.5,5.3,2.5c1.9,0,3.9-1,6-3c1.5-1.3,3.1-3,4.8-5c-1.5,2.5-2.9,4.8-4.2,6.8l-21.7,36.2l1.4-0.6 c1.3-0.5,2.6-0.8,3.9-0.8c0.9,0,2,0.2,3.5,0.7l0.4,0.1l0.2-0.3c14.5-24.4,24.8-41.9,31.5-53.4l28.3-47.6l0.4,0l-0.5-1.7L308.9,22.7 z"></path> <linearGradient id="SVGID_00000125599594780276828390000007955925660152403847_" gradientUnits="userSpaceOnUse" x1="355.3301" y1="89.3662" x2="464.5195" y2="89.3662"> <stop offset="0" style="stop-color:#0E1231"></stop> <stop offset="0" style="stop-color:#124B8B"></stop> <stop offset="1" style="stop-color:#06192D"></stop> </linearGradient> <path style="fill:url(#SVGID_00000125599594780276828390000007955925660152403847_);" d="M362.5,90.5c1.9,0,3.9-1,6-3 c2.2-2,4.7-4.7,7.3-8.2c-0.4,1.1-0.6,2.1-0.6,2.9c0,2.1,0.7,4,2,5.7c1.4,1.7,3.1,2.6,5.2,2.6c3.2,0,7.3-3,12.6-9.3 c6.5-7.7,8.6-10.7,9.2-12c0.1-0.1,0.3-0.3,0.4-0.5c8-11.3,11.3-13.6,12.6-13.6c0.3,0,1,0,1,1.5c0,2.2-3.2,8.3-9.4,18.2l-9.7,15.3 h9.4l0.1-0.3c3.5-6.4,7.6-13,12.2-19.6c8.6-12.5,12.8-15.1,14.9-15.1c0.9,0,1.9,0.3,1.9,2.4c0,2.1-3,7.9-8.8,17.3L419.3,90l0.9,0 c1.2,0,2.7,0,4.5,0h3.8l0.1-0.2c13.6-23,23.2-34.7,28.6-34.7c1.5,0,2.1,0.7,2.1,2.1c0,1-0.9,3.5-5.3,9.9 c-15.3,25.8-26.8,45-34.1,57.1l-0.8,1.3l1.4-0.6c1.3-0.6,2.7-0.8,4-0.8c0.9,0,2.1,0.3,3.5,0.8l0.4,0.1l32.9-53.6 c2.1-3.5,3.2-6.6,3.2-9.3l0-0.3c0-2.2-0.6-4.2-1.9-5.9c-1.3-1.8-3-2.7-5.2-2.7c-3.7,0-8.7,4.1-15.4,12.6c0.6-1.7,1-3.2,1-4.5 c0-2.1-0.6-4-1.8-5.6c-1.2-1.7-2.9-2.5-5-2.5c-3.3,0-7.9,3.8-13.9,11.7c0.7-1.8,1.1-3.4,1.1-4.7c0-1.7-0.5-3.2-1.5-4.7 c-1-1.5-2.4-2.3-4-2.3c-2,0-5.1,2.4-9.3,7.3c-4,4.5-5.4,6.5-5.8,7.5c-0.1,0.1-0.1,0.2-0.2,0.3l-1.2,1.4l-2,2.8 c-7.7,10.6-13.2,16-16.3,16c-1.5,0-2.1-0.7-2.1-2.3c0-2.2,2.4-7.3,7.3-15.2l10.8-17.6l-1,0.1c-2,0.3-3.5,0.4-4.6,0.4 c-0.8,0-1.9-0.2-3.2-0.4l-0.4-0.1l-6.6,11c-9.4,16-16.2,24.1-20.2,24.1c-1,0-2-0.3-2-2.4c0-1.9,0.8-4.1,2.3-6.6l15.9-26l-1,0.1 c-2,0.2-3.5,0.4-4.3,0.4c-0.7,0-1.8-0.1-3.4-0.4l-0.3-0.1l-11.9,19.9c-2,3.3-3,6.3-3,8.8c0,2.1,0.7,4,1.9,5.6 C358.6,89.6,360.4,90.5,362.5,90.5z"></path> <linearGradient id="SVGID_00000080171482368605201660000015589443169306020498_" gradientUnits="userSpaceOnUse" x1="468.3604" y1="54.6399" x2="703.8604" y2="54.6399"> <stop offset="0" style="stop-color:#0E1231"></stop> <stop offset="0" style="stop-color:#124B8B"></stop> <stop offset="1" style="stop-color:#06192D"></stop> </linearGradient> <path style="fill:url(#SVGID_00000080171482368605201660000015589443169306020498_);" d="M703.5,25.5c-0.4-1.7-1.2-3-2.4-4.1 c-1.8-1.7-4.3-2.6-7.3-2.6c-4.6,0-8.9,1.3-12.8,3.8c-4.4,2.8-6.7,6.5-6.7,11.1c0,2.8,0.3,5.8,0.9,8.7c0.6,2.9,0.9,4.9,0.9,5.8 c0,1.8-0.4,3.7-1.2,5.8l-6.3,10.7c-9.4,15.9-16.3,24-20.4,24c-1,0-2-0.3-2-2.4c0-1.9,0.8-4.1,2.3-6.6l15.9-26l-1,0.1 c-2,0.2-3.5,0.4-4.3,0.4c-0.7,0-1.8-0.1-3.4-0.4l-0.3-0.1l-8.5,14.2c-0.2-0.2-0.4-0.4-0.7-0.4c-0.3,0-0.8,0.2-1.1,0.9 c-9.4,13.4-16.1,20.2-19.7,20.2c-1.8,0-2.5-0.7-2.5-2.4c0-1.8,1-4.4,3.1-7.8l15.2-24.8l-1,0.1c-2.1,0.2-3.7,0.4-4.9,0.4 c-0.7,0-1.7-0.1-3.1-0.4l-0.3-0.1l-10.2,17.3c-2,3.4-3.3,6.2-4,8.5c-5,6.1-8.8,9.2-11.2,9.2c-1.5,0-2.1-0.7-2.1-2.1 c0-0.9,1-3.6,5.9-11.2c4.1-6.4,6.1-10.8,6.1-13.5c0-2.2-0.7-4.2-1.9-5.9c-1.3-1.7-3.1-2.6-5.3-2.6c-3.1,0-6.8,2.4-11.3,7.4 c-0.9,1-2.1,2.6-3.7,4.7c0.8-1.9,1.2-3.5,1.2-4.9c0-1.7-0.5-3.4-1.5-4.9c-1.1-1.5-2.5-2.3-4.2-2.3c-1.5,0-4.6,1.4-13.7,13.3 l-0.8,1.1c-0.2,0.1-0.4,0.3-0.6,0.8l-1.2,1.4l-2,2.8c-7.7,10.6-13.2,16-16.3,16c-1.5,0-2.1-0.7-2.1-2.3c0-2.2,2.4-7.3,7.3-15.2 l10.8-17.6l-1,0.1c-2,0.3-3.5,0.4-4.6,0.4c-0.8,0-1.9-0.1-3.2-0.4l-0.4-0.1l-6.6,11c-9.4,16-16.2,24.1-20.2,24.1c-1,0-2-0.3-2-2.4 c0-1.9,0.8-4.1,2.3-6.6l15.9-26l-1,0.1c-2,0.2-3.5,0.4-4.3,0.4c-0.7,0-1.8-0.1-3.4-0.4l-0.3-0.1l-11.9,19.9 c-1.3,2.1-2.1,4.1-2.6,5.9c-5,6.1-8.7,9.2-11.1,9.2c-1,0-1.5-0.4-1.5-1.5c0-2.2,3.2-8.3,9.4-18.2l9.7-15.3h-9.4l-0.1,0.3 c-3.5,6.4-7.6,12.9-12.2,19.6C503.3,86,499.1,88.6,497,88.6c-0.9,0-1.9-0.3-1.9-2.4c0-1.4,1.5-5.6,8.9-17.2l9.6-15.2l-0.9,0 c-1.2,0-2.7,0-4.5,0h-3.8l-0.1,0.2c-13.6,23-23.3,34.7-28.7,34.7c-1.3,0-1.9-0.7-1.9-2.1c0-2.6,1.3-5.9,4-9.9l14.4-23l-1,0.1 c-2.1,0.3-3.5,0.4-4.3,0.4c-0.8,0-1.9-0.1-3.3-0.4l-0.3-0.1l-11.5,18.6c-2.1,3.7-3.2,6.9-3.2,9.6c0,2.2,0.6,4.2,1.9,6 c1.3,1.8,3,2.7,5.2,2.7c3.7,0,8.7-4.2,15.3-12.7c-0.6,1.7-1,3.2-1,4.5c0,2.1,0.6,4,1.8,5.6c1.2,1.7,2.9,2.5,5,2.5 c3.3,0,7.9-3.9,14-11.8c-0.7,1.8-1.1,3.4-1.1,4.7c0,1.8,0.5,3.4,1.5,4.8c1.1,1.5,2.5,2.3,4.2,2.3c3,0,6.8-2.6,11.5-7.8 c0.1,2,0.7,3.8,1.9,5.3c1.3,1.7,3.1,2.5,5.3,2.5c1.9,0,3.9-1,6-3c2.2-2,4.7-4.8,7.2-8.2c-0.4,1.1-0.6,2.1-0.6,2.9 c0,2.1,0.7,4,2,5.7c1.4,1.7,3.1,2.6,5.2,2.6c3.2,0,7.3-3,12.6-9.3c6.3-7.5,8.5-10.5,9.2-11.9l0.3,0.3v-0.7c0-0.1,0.1-0.1,0.2-0.2 c7.8-11.3,11.1-13.6,12.5-13.6c0.5,0,1.1,0.2,1.1,1.5c0,1.5-1.5,5.6-8.5,16.7L570.7,90h9.2l0.1-0.3c12.8-23,22.4-34.7,28.5-34.7 c1.6,0,2.3,0.7,2.3,2.1c0,0.9-0.9,3.4-5.2,9.6c-4.6,6.7-4.8,7.1-4.8,7.1c-1.8,3.1-2.7,5.8-2.7,8.3c0,2.2,0.7,4.2,2,5.8 c1.4,1.7,3.2,2.5,5.3,2.5c2.9,0,6.5-2.6,11.2-7.9c0,2.2,0.7,4.1,2.1,5.6c1.4,1.5,3.3,2.3,5.5,2.3c4.3,0,10.4-5.5,18.7-16.7 c-1.9,3.2-2.9,6.1-2.9,8.6c0,2.1,0.7,4,1.9,5.6c1.3,1.7,3.1,2.5,5.3,2.5c1.9,0,3.9-1,6-3c2.2-2,4.7-4.8,7.2-8.2 c-0.4,1.1-0.6,2.1-0.6,2.9c0,2.1,0.7,4,2,5.7c1.4,1.7,3.1,2.6,5.2,2.6c3.2,0,7.3-3,12.6-9.3c8.3-9.9,9.5-12,9.5-12.8 c0-0.5-0.4-0.9-0.9-0.9c-0.3,0-0.8,0.2-1.1,0.9l-1.2,1.4l-2,2.8c-7.7,10.6-13.2,16-16.3,16c-1.5,0-2.1-0.7-2.1-2.3 c0-1.9,2.4-7,7.3-15.2l4.1-7.1c1.5-2.1,2.6-4.6,3.4-7.6c2.9-3.7,5-6.1,6.1-7.4l5-6h1c2.9,0,5.6-1.8,8-5.4c2.1-3.1,3.1-6.1,3.1-9.1 l0-4.6L703.5,25.5z M681.2,40.6c0-4.2,1.4-8.4,4.1-12.5c3-4.5,6.5-6.8,10.4-6.8c1.6,0,3,0.5,4.2,1.5c1.1,1,1.7,2.2,1.7,3.8l0,0.2 c0,1.5-0.6,2.9-1.7,4.2c-1.2,1.4-2.5,2.2-4.1,2.5c-4.4,0.9-6.6,2.8-6.6,5.6c0,1,0.3,1.8,1,2.5c-3.7,4.6-6.7,8.4-9,11.4V40.6z"></path> <linearGradient id="SVGID_00000181793906444626184490000002125656827129909424_" gradientUnits="userSpaceOnUse" x1="747.3799" y1="70.03" x2="883.2998" y2="70.03"> <stop offset="0" style="stop-color:#0E1231"></stop> <stop offset="0" style="stop-color:#124B8B"></stop> <stop offset="1" style="stop-color:#06192D"></stop> </linearGradient> <path style="fill:url(#SVGID_00000181793906444626184490000002125656827129909424_);" d="M879.9,18.7c-4.8,0-11.1,4.7-19.4,14.3 c-5.7,6.7-10.6,13.5-14.6,20.2h-7l-1.2,1.8h7.1l-9.5,17.3c-1.4,2.5-2.6,4.8-3.8,6.9c-5,6.2-8.8,9.3-11.2,9.3 c-1.5,0-2.1-0.7-2.1-2.3c0-2.2,2.5-7.3,7.3-15.1l10.8-17.6l-1,0.1c-2,0.3-3.5,0.4-4.6,0.4c-0.8,0-1.9-0.2-3.2-0.4l-0.4-0.1l-6.6,11 c-9.4,16-16.2,24.1-20.3,24.1c-1.4,0-2.6-0.5-3.6-1.5c-1-1.1-1.5-2.3-1.7-3.8c-0.4-7.1,3.5-13.9,11.7-20.2 c7.9-2.1,11.7-4.4,11.7-6.9c0-1.2-0.8-1.8-2.1-1.8c-0.8,0-2.5,0.5-7.8,4.9l-2.9,2.4c-0.5,0.1-1.1,0.1-2,0.1c-3.9,0-4.4-2-4.4-3.5 c0-1.3,0.3-2.7,0.9-4.2c2.4-1.2,5-2.3,7.6-3.3c14.4-5.5,23.1-9.3,26.6-11.6c6.4-4.2,9.8-8.3,10.1-12.3l0-0.5c0-3.7-2.6-5.6-7.8-5.6 c-6.3,0-14.8,3.1-25.3,9.2c-4.4,2.5-8.2,5.9-11.5,10.1c-3.7,4.8-5.6,9.5-5.6,14v1.2c-2.1,1.3-5.2,3.7-9.6,7.4 c-1.8,0.3-3.2,0.5-4.2,0.5c-0.8,0-1.9-0.2-3.2-0.5l-0.3-0.1l-4.7,6.9c-10.6,16-15.2,19.4-17.3,19.4c-1,0-2-0.3-2-2.4 c0-1.9,0.8-4.1,2.3-6.6l15-24.5h21.3l1.2-1.8h-21.5l18.7-30.6l-1.1,0.2c-2.1,0.4-3.1,0.5-3.6,0.5c-0.7,0-1.7,0.1-3,0.3l-0.2,0 l-34,48.4l-0.1,0.1l0,0.1c-0.6,3.5-0.8,6.6-0.8,9.4c0,2.3,0.7,4.3,1.9,6.1c1.3,1.8,3.1,2.7,5.3,2.7c1.9,0,3.9-1,6-3 c2.2-2,4.7-4.7,7.3-8.2c-0.4,1.1-0.6,2.1-0.6,2.9c0,2.1,0.7,4,2,5.7c1.4,1.7,3.1,2.6,5.2,2.6c3.2,0,7.3-3,12.6-9.3 c9.5-11.2,9.5-12.4,9.5-12.8l0-2l-0.6,1.1c-0.1,0-0.2,0-0.3,0c-0.5,0-0.8,0.3-1.1,0.9l-1.2,1.4l-2,2.8c-7.7,10.6-13.2,16-16.3,16 c-1.5,0-2.1-0.7-2.1-2.3c0-2.7,2.5-7.8,7.3-15.1l4.4-6.6c0.2-0.2,0.4-0.4,0.7-0.6c3.8-3.3,6.9-5.7,9.3-7.1c0.5,1.8,1.5,3.4,3,4.6 c1.6,1.4,3.5,2,5.5,1.8h0.2c-1.7,1.2-3.2,2.6-4.6,4.2c-1,1.6-2.1,3.2-3.3,4.9c-1.9,3.4-2.8,6.7-2.8,9.9c0,2.1,0.7,4,1.9,5.6 c1.3,1.7,3.1,2.5,5.3,2.5c1.9,0,3.9-1,6-3c2.2-2,4.7-4.7,7.3-8.2c-0.4,1.1-0.6,2.1-0.6,2.9c0,2.1,0.7,4,2,5.7 c1.4,1.7,3.1,2.6,5.2,2.6c2.2,0,4.9-1.5,8.1-4.5c-4.2,7.6-7,12.4-8.3,14.4c-2.8,4.2-5.9,8-9.4,11.1c-5.8,5.1-11.5,7.6-17.2,7.6 c-1.3,0-2.7-0.2-4.2-0.6c-0.2-0.1-0.5-0.2-1-0.2c-0.7,0-1.2,0.4-1.2,1.2c0,1.6,2.8,1.8,5.2,1.8c7.2,0,15.1-3.5,23.4-10.4 c6.8-5.6,13-12.8,18.7-21.2c3.7-5.6,8.4-13.9,14-24.7l5.1-10h11.2l1.2-1.8h-10.3c6-3.9,11.5-8.1,16.4-12.6c7.5-7,11.5-13,11.7-17.8 l0-0.5C883.3,20,882.1,18.7,879.9,18.7z M867,31.5c5.4-7.3,9.8-11,12.9-11c1,0,1.5,0.4,1.6,1.3v0.3c0,3.3-3.9,8.7-11.6,16.1 c-5.1,4.9-10,9.1-14.5,12.4C860.6,41.3,864.4,34.9,867,31.5z M842.6,26.1c0,5.8-8.5,12.2-25.1,18.9c-8.4,3.5-13.8,5.7-16.4,6.8 c2.9-6.4,7.7-12.7,14.3-18.7c7.7-7.1,14.9-10.7,21.4-10.7C840.7,22.4,842.6,23.6,842.6,26.1z"></path> <linearGradient id="SVGID_00000145027624187334530840000004454181326788896917_" gradientUnits="userSpaceOnUse" x1="336.3101" y1="209" x2="450.0898" y2="209"> <stop offset="0" style="stop-color:#0E1231"></stop> <stop offset="0" style="stop-color:#124B8B"></stop> <stop offset="1" style="stop-color:#06192D"></stop> </linearGradient> <path style="fill:url(#SVGID_00000145027624187334530840000004454181326788896917_);" d="M449.5,250.4l-0.2-0.2l-0.3,0.1 c-0.4,0.2-1.7,1-4.7,3.1c-1.6,1-3.8,1.5-6.3,1.5c-2.6,0-5.8-0.4-9.5-1.3c-6.3-1.5-12.5-3-18.4-4.3c-10.7-2.6-18.7-4.7-24.3-6.4 c11.4-3.6,21.1-8.5,28.9-14.6c6.6-5.2,12-11.3,15.9-18c4.6-7.8,6.8-15.1,6.8-22.9c0-8-2.3-14.7-7-19.9c-4.7-5.3-11-7.9-19-7.9 c-12.7,0-25.4,4.5-37.8,13.5c-14.9,10.7-22.5,23.5-22.5,38c0,7,2,12.7,6.1,16.8c4,4.1,9.6,6.2,16.7,6.2c10.6,0,20.5-3.9,29.4-11.6 c9.3-8.1,14-17.4,14-27.9c0-4.5-1-8.3-3.1-11.5c-2.4-3.8-5.8-5.8-10-5.8c-2.6,0-4.9,0.8-6.8,2.4c-2,1.6-3,3.8-3,6.4 c0,3.2,1.6,4.8,4.6,4.8c1.4,0,2.7-0.6,3.8-1.7c1.1-1.1,1.6-2.4,1.6-4c0-3.2-2-3.9-3.7-3.9c-0.8,0-1.5,0.2-2,0.5 c-0.3,0.2-0.4,0.3-0.6,0.3c0.2-0.5,1-1.1,2.3-1.6c1.7-0.7,3-1,4-1c2.8,0,5,1.2,6.7,3.6c1.5,2.1,2.3,4.7,2.3,7.7 c0,8.1-3.6,16.6-10.7,25.3c-8.5,10.3-18.2,15.6-29,15.6c-5.2,0-9.3-1.5-12.2-4.3c-2.9-2.9-4.4-7-4.4-12.2c0-12.5,6-24.7,17.7-36.3 c11.8-11.5,24.1-17.4,36.6-17.4c6.1,0,10.9,1.9,14.1,5.5c3.2,3.7,4.9,8.7,4.9,14.9c0,13.2-4.9,25.6-14.5,37.1 c-9.2,10.8-20.4,18.4-33.4,22.6c-12.7-3.9-23.2-5.9-31.4-5.9c-9.9,0-14.7,1.8-14.7,5.5c0,4.3,6.2,6.4,18.9,6.4 c6.6,0,12.8-0.7,18.4-2l1.4,0.6c9.1,3.7,22.3,7.3,39.4,10.7c4.2,0.8,9.3,1.2,16,1.2c7,0,12.4-1.2,16.2-3.5c2.7-1.8,3.3-2.7,3.4-3.3 l0-0.2C450.1,251,449.9,250.7,449.5,250.4z M369.9,244.7c-3.9,0.7-8.8,1.1-14.5,1.1c-14,0-16.9-2.3-16.9-4.2c0-2.1,3.8-2.5,7-2.5 C349.8,239,358,240.9,369.9,244.7z"></path> <linearGradient id="SVGID_00000129185980049117214690000008784452538879576228_" gradientUnits="userSpaceOnUse" x1="423.7798" y1="235.7519" x2="510.6064" y2="235.7519"> <stop offset="0" style="stop-color:#0E1231"></stop> <stop offset="0" style="stop-color:#124B8B"></stop> <stop offset="1" style="stop-color:#06192D"></stop> </linearGradient> <path style="fill:url(#SVGID_00000129185980049117214690000008784452538879576228_);" d="M509.9,211.6c-2.1,0.3-3.6,0.4-4.5,0.4 c-1.2,0-2.1-0.1-2.9-0.4l-0.4-0.1l-0.2,0.4c-4.3,8-8.6,14.9-12.7,20.4c-7,9.5-12,14.3-14.9,14.3c-0.5,0-1.2-0.1-1.3-0.4 c0-0.3-0.1-1.1-0.1-2c0-1.9,0.8-4.1,2.3-6.6l15.9-26.2l-1.1,0.2c-2.1,0.3-3.5,0.5-4.3,0.5c-0.7,0-1.8-0.2-3.3-0.5l-0.4-0.1l-9,15.1 v-0.2c0-0.4-0.2-0.8-0.6-0.9l-0.4-0.4l0,0.4c-0.3,0-0.7,0.2-1,0.9l-1.2,1.4l-2,2.8c-7.7,10.6-13.2,16-16.3,16 c-1.5,0-2.1-0.7-2.1-2.3c0-2.7,2.5-7.8,7.3-15.1l5.9-9l-1.1,0.2c-1.9,0.3-3.5,0.5-4.5,0.5c-0.8,0-1.9-0.2-3.2-0.5l-0.3-0.1 l-4.7,6.9c-10.6,16-15.2,19.4-17.3,19.4c-1,0-2-0.3-2-2.4c0-1.9,0.8-4.1,2.3-6.6l15-24.5h21.3l1.2-1.8h-21.5l18.7-30.6l-1.1,0.2 c-2.1,0.4-3.1,0.5-3.6,0.5c-0.7,0-1.7,0.1-3,0.3l-0.2,0l-34,48.4l-0.1,0.1l0,0.1c-0.6,3.5-0.8,6.6-0.8,9.4c0,2.3,0.7,4.3,1.9,6.1 c1.3,1.8,3.1,2.7,5.3,2.7c1.9,0,3.9-1,6-3c2.2-2,4.7-4.8,7.2-8.2c-0.4,1.1-0.6,2.1-0.6,2.9c0,2.1,0.7,4,2,5.7 c1.4,1.7,3.1,2.6,5.2,2.6c3.2,0,7.3-3,12.6-9.3c3.8-4.6,6.2-7.5,7.5-9.4l-1,1.7c-2.1,3.6-3.2,7.2-3.2,10.8c0,1.3,0.3,2.4,0.8,3.1 c1.5,2.1,3.5,3.1,6.1,3.1c3,0,6.7-2.6,11.2-7.9c-9.3,15.2-16.4,26.9-21.1,35c-1.2,1.7-1.8,4.1-1.8,7.1c0,2.1,0.6,4,1.8,5.5 c1.2,1.6,2.9,2.4,5,2.4c4.1,0,10.1-5.5,18.5-16.9l2.8-3.8c0.4-0.6,0.6-1,0.6-1.4c0-0.7-0.4-0.9-0.8-0.9c-0.3,0-0.8,0.2-1.1,0.9 c-11.8,16.7-17.1,20.2-19.4,20.2c-1,0-1.9-0.3-1.9-2.4c0-1.9,1.5-5.4,4.5-10.3c9-15.2,13.9-23.5,14.7-24.8c1.8-2.6,2.8-4.1,3.2-4.9 c12.4-20.5,19.7-32.6,20.6-34.2l0.2-0.4l-0.5-0.4L509.9,211.6z"></path> </g> </svg> 