<?xml version="1.0" encoding="UTF-8"?> <svg xmlns="http://www.w3.org/2000/svg" xmlns:xlink="http://www.w3.org/1999/xlink" id="Layer_2" data-name="Layer 2" viewBox="0 0 1253.06 522.23"> <defs> <style> .cls-1 { fill: url(#linear-gradient); } </style> <linearGradient id="linear-gradient" x1="0" y1="261.11" x2="1253.06" y2="261.11" gradientUnits="userSpaceOnUse"> <stop offset="0" stop-color="#0e1231"></stop> <stop offset="0" stop-color="#c0ac86"></stop> <stop offset=".4" stop-color="#b29465"></stop> <stop offset=".77" stop-color="#a9834d"></stop> <stop offset="1" stop-color="#a67d45"></stop> </linearGradient> </defs> <g id="Layer_1-2" data-name="Layer 1"> <path class="cls-1" d="m175.77,25.16c-11.7-3.7-22.88-6.51-33.54-8.44-10.66-1.92-21.92-3.18-33.76-3.78-10.52-.44-19.99.78-28.43,3.67-8.44,2.89-15.62,6.7-21.54,11.44-5.92,4.74-10.59,10.11-13.99,16.1-3.41,6-5.33,11.77-5.78,17.32s.59,10.59,3.11,15.1c2.52,4.52,6.66,7.66,12.44,9.44,6.81,2.22,12.88,2.44,18.21.67,5.33-1.78,9.85-4.33,13.55-7.66,3.7-3.33,6.44-6.77,8.22-10.33,1.78-3.55,2.59-6.14,2.44-7.77v-.44c1.18-1.03,2.22-1.37,3.11-1,.89.37,1.33,1.3,1.33,2.78-.74,5.92-2.74,11.11-6,15.55-3.26,4.44-7.22,8-11.88,10.66-4.66,2.67-9.74,4.3-15.21,4.89-5.48.59-10.81,0-15.99-1.78-7.55-2.67-13.36-6.88-17.43-12.66-4.07-5.78-6.41-12.22-7-19.32-.59-7.11.63-14.36,3.66-21.77,3.03-7.4,7.81-13.99,14.33-19.77,6.51-5.77,14.88-10.25,25.1-13.44,10.22-3.18,22.28-4.18,36.2-3,6.66.59,13.51,1.74,20.54,3.44,7.03,1.7,13.81,3.55,20.32,5.55,6.51,2,12.51,3.96,17.99,5.89,5.48,1.93,10,3.41,13.55,4.44,1.92-1.63,4.18-3.26,6.77-4.89,2.59-1.63,4.85-2.81,6.77-3.55,3.55-1.48,5.48-1.7,5.78-.67.29,1.04-.89,2.37-3.55,4-1.48,1.04-3,2.41-4.55,4.11-1.55,1.7-2.48,2.85-2.78,3.44,3.26,1.04,7.22,2.22,11.88,3.55,4.66,1.33,9.62,2.63,14.88,3.89,5.25,1.26,10.51,2.3,15.77,3.11,5.25.82,10,1.26,14.21,1.33,4.22.08,7.62-.37,10.22-1.33,2.59-.96,3.89-2.7,3.89-5.22,0-2.22.81-3.33,2.44-3.33.74,0,1.29.63,1.67,1.89.37,1.26.56,2.19.56,2.78,0,4.3-2.41,7.52-7.22,9.66-4.81,2.15-10.77,2.78-17.88,1.89-8.29-1.03-15.51-2.26-21.66-3.67-6.15-1.41-11.37-2.7-15.66-3.89-4.3-1.18-7.74-2.29-10.33-3.33-2.59-1.03-4.48-1.78-5.66-2.22-6.22,8.59-12.62,18.43-19.21,29.54-6.59,11.11-12.99,22.06-19.21,32.87,8.29.15,16.47.63,24.54,1.44,8.07.82,15.55,2.44,22.43,4.89,6.88,2.44,12.99,5.89,18.32,10.33,5.33,4.44,9.47,10.37,12.44,17.77,3.4,10.07,3.4,19.55,0,28.43-3.41,8.88-9.11,16.47-17.1,22.77-8,6.29-17.66,11.03-28.98,14.21-11.33,3.18-23.14,4.03-35.43,2.55-14.07-1.63-25.73-3.81-34.98-6.55-9.25-2.74-17.29-5.66-24.1-8.77-8.59,6.37-17.62,10.88-27.1,13.55-9.48,2.67-19.32,3.33-29.54,2-7.55-.89-13.48-2.93-17.77-6.11-4.3-3.18-7.07-6.77-8.33-10.77-1.26-4-1.15-8,.33-11.99,1.48-4,4.22-7.36,8.22-10.11,4-2.74,9.18-4.4,15.55-5,6.37-.59,13.69.59,21.99,3.55,4.14,1.63,8.77,3.92,13.88,6.88,5.11,2.96,11.22,6.15,18.32,9.55,7.4-7.11,14.14-15.92,20.21-26.43,6.07-10.51,12.22-21.69,18.43-33.54,6.22-11.84,12.88-23.88,19.99-36.09,7.11-12.22,15.4-23.58,24.88-34.09l13.1-14.21Zm-101.5,148.59c-5.18-2.52-10.29-5.03-15.33-7.55-5.04-2.52-10.88-4.96-17.55-7.33-5.63-1.92-10.44-2.63-14.44-2.11-4,.52-7.15,1.82-9.44,3.89-2.3,2.08-3.7,4.55-4.22,7.44-.52,2.89-.15,5.74,1.11,8.55,1.26,2.81,3.37,5.22,6.33,7.22,2.96,2,6.89,3.14,11.77,3.44,8.14.3,15.66-.78,22.54-3.22,6.88-2.44,13.29-5.89,19.21-10.33Zm68.85-76.85c-8,13.62-15.73,26.43-23.21,38.42-7.48,11.99-15.14,22.21-22.99,30.65-1.48,1.48-2.89,2.85-4.22,4.11-1.33,1.26-2.74,2.55-4.22,3.89,6.96,2.96,14.8,5.66,23.54,8.11,8.74,2.44,18.88,4.18,30.43,5.22,10.51.89,20.1-.04,28.76-2.78,8.66-2.74,16.06-6.59,22.21-11.55,6.14-4.96,10.96-10.66,14.44-17.1,3.48-6.44,5.33-12.84,5.55-19.21.22-6.37-1.3-12.36-4.55-17.99-3.26-5.62-8.44-10.14-15.55-13.55-6.81-3.25-14.55-5.33-23.21-6.22s-17.66-1.55-26.99-2Zm189.89,48.2c-3.85,7.7-7.26,14.18-10.22,19.43-2.96,5.26-6.26,9.77-9.88,13.55-3.63,3.78-8,7.11-13.1,9.99-5.11,2.89-11.66,5.74-19.66,8.55-3.55,6.22-7.59,12.81-12.1,19.77-4.52,6.96-9.59,13.36-15.21,19.21-5.63,5.85-11.92,10.66-18.88,14.44-6.96,3.78-14.51,5.66-22.65,5.66-5.63,0-10-.82-13.1-2.44-3.11-1.63-5.29-3.78-6.55-6.44-1.26-2.67-1.67-5.59-1.22-8.77.44-3.19,1.48-6.33,3.11-9.44,2.08-4.15,5-7.7,8.77-10.66,3.78-2.96,7.81-5.48,12.1-7.55,7.55-3.55,16.17-6.48,25.88-8.77,9.7-2.3,19.06-4.7,28.1-7.22,2.07-3.7,4.07-7.85,6-12.44,1.92-4.59,3.7-9.18,5.33-13.77,1.63-4.59,3.11-8.96,4.44-13.1,1.33-4.14,2.44-7.7,3.33-10.66-1.93,3.41-4.22,7.44-6.89,12.1s-5.66,9.11-9,13.33c-3.33,4.22-6.96,7.85-10.88,10.88-3.92,3.04-8.03,4.55-12.33,4.55-1.19,0-2.48-.11-3.89-.33-1.41-.22-2.78-.7-4.11-1.44-1.33-.74-2.55-1.78-3.67-3.11s-1.89-3.03-2.33-5.11c-.44-2.37-.52-4.66-.22-6.88.29-2.22.85-4.4,1.67-6.55.81-2.14,1.78-4.22,2.89-6.22s2.18-4.03,3.22-6.11c-.74,0-1.44-.22-2.11-.67-.67-.44-.63-1.41.11-2.89.74-1.18,1.41-2.44,2-3.78.59-1.33,1.26-2.67,2-4,2.22-4.29,4.44-8.59,6.66-12.88,2.22-4.29,4.14-8.14,5.77-11.55.89-1.78,2.03-3,3.44-3.67,1.41-.67,3.14-1,5.22-1h13.55c-1.04.89-2.33,1.85-3.89,2.89-1.55,1.04-3,2.74-4.33,5.11-3.85,6.52-7.37,13.03-10.55,19.55-3.19,6.52-6.33,13.1-9.44,19.77-2.67,5.77-4.15,10.59-4.44,14.44-.3,3.85.26,6.55,1.67,8.11,1.41,1.55,3.52,1.78,6.33.67,2.81-1.11,6-3.74,9.55-7.88,3.11-3.55,6.29-7.77,9.55-12.66,3.26-4.89,6.4-9.96,9.44-15.21,3.03-5.25,5.92-10.47,8.66-15.66,2.74-5.18,5.14-9.99,7.22-14.44.89-1.78,2.03-3,3.44-3.67,1.41-.67,3.14-1,5.22-1h11.99c-2.08,1.48-3.89,3.15-5.44,5-1.55,1.85-3,3.96-4.33,6.33-1.33,2.37-2.59,5.07-3.78,8.11-1.19,3.04-2.44,6.41-3.78,10.11-2.81,7.55-5.66,15.7-8.55,24.43-2.89,8.74-5.96,17.55-9.22,26.43,2.37-.74,5-1.7,7.88-2.89,2.89-1.18,5.74-2.67,8.55-4.44,2.81-1.78,5.55-3.89,8.22-6.33,2.67-2.44,5.11-5.22,7.33-8.33,3.4-5.03,6.29-9.85,8.66-14.44,2.37-4.59,4.14-7.92,5.33-10,1.03-1.92,2.07-2.63,3.11-2.11,1.03.52,1.03,1.89,0,4.11Zm-68.63,56.41c-3.55.89-7.37,1.85-11.44,2.89-4.07,1.03-8.18,2.14-12.33,3.33-4.15,1.18-8.14,2.41-11.99,3.67-3.85,1.26-7.33,2.55-10.44,3.89-5.62,2.52-10.33,5.77-14.1,9.77-3.78,4-6.29,7.96-7.55,11.88-1.26,3.92-1.14,7.29.33,10.11,1.48,2.81,4.59,4.22,9.33,4.22s9.92-1.52,15.1-4.55c5.18-3.04,10.18-6.7,14.99-10.99,4.81-4.3,9.25-8.81,13.33-13.55,4.07-4.74,7.36-8.88,9.88-12.44.74-1.19,1.52-2.48,2.33-3.89.81-1.41,1.67-2.85,2.55-4.33Zm155.91-56.86c-2.81,5.77-5.41,10.96-7.77,15.55-2.37,4.59-4.85,8.63-7.44,12.1-2.59,3.48-5.37,6.52-8.33,9.11-2.96,2.59-6.52,4.85-10.66,6.77-2.52,6.96-6.11,14.4-10.77,22.32-4.67,7.92-10.14,15.21-16.44,21.88-6.29,6.66-13.21,12.21-20.77,16.66-7.55,4.44-15.33,6.66-23.32,6.66-13.92,0-20.88-5.7-20.88-17.1,0-5.48,1.89-10.33,5.66-14.55,3.78-4.22,8.33-7.88,13.66-10.99,5.48-3.26,10.81-6,15.99-8.22,5.18-2.22,10.25-4.22,15.21-6,4.96-1.78,9.77-3.41,14.44-4.89,4.67-1.48,9.14-3.11,13.44-4.89,1.33-3.85,2.41-7.81,3.22-11.88.81-4.07,1.44-8.33,1.89-12.77.44-4.29.67-8.11.67-11.44s-.15-5.59-.44-6.77c-1.78,3.41-4.19,7.59-7.22,12.55-3.04,4.96-6.44,9.59-10.22,13.88-3.78,4.3-7.81,7.7-12.1,10.22-4.3,2.52-8.66,3.11-13.1,1.78-5.63-2.37-9.14-5.96-10.55-10.77-1.41-4.81-1.44-10.14-.11-15.99,1.33-5.85,3.67-11.81,7-17.88,3.33-6.07,7.07-11.55,11.22-16.44,3.25-4,7-7.36,11.22-10.11,4.22-2.74,8.62-4.66,13.22-5.78,4.59-1.11,9.22-1.26,13.88-.44,4.66.82,9.07,2.85,13.22,6.11,1.92,1.63,3,3.19,3.22,4.66.22,1.48,0,2.63-.67,3.44-.67.82-1.52,1.15-2.55,1-1.04-.15-1.85-1.03-2.44-2.67-1.48-4-3.52-6.51-6.11-7.55-2.59-1.03-5.52-1-8.77.11-3.26,1.11-6.7,3.07-10.33,5.89-3.63,2.81-7.15,6.07-10.55,9.77-4,4.59-7.7,9.55-11.11,14.88-3.41,5.33-6.03,10.4-7.88,15.21-1.85,4.81-2.74,9.03-2.67,12.66.07,3.63,1.59,6.11,4.55,7.44,3.25,1.33,6.92.55,10.99-2.33,4.07-2.89,8-6.74,11.77-11.55,3.78-4.81,7.14-9.88,10.11-15.21,2.96-5.33,4.96-9.77,6-13.33.74-2.52,1.7-4.29,2.89-5.33,1.18-1.03,2.44-1.7,3.78-2,1.33-.29,2.63-.44,3.89-.44s2.33-.37,3.22-1.11c1.48,8.88,1.96,17.88,1.44,26.99-.52,9.11-1.96,18.1-4.33,26.99,2.67-1.92,5.37-4.07,8.11-6.44,2.74-2.37,5.22-5.03,7.44-8,3.7-4.89,6.48-9.51,8.33-13.88,1.85-4.37,3.37-7.59,4.55-9.66,1.03-1.92,2.11-2.67,3.22-2.22s1.15,1.78.11,4Zm-50.2,50.86c-1.19.44-2.44.89-3.78,1.33-1.33.44-2.67.89-4,1.33-8.15,2.81-16.55,5.89-25.21,9.22-8.66,3.33-16.55,7.36-23.65,12.1-3.55,2.37-6.62,5.37-9.22,9-2.59,3.63-4.29,7.11-5.11,10.44-.81,3.33-.44,6.22,1.11,8.66s4.63,3.66,9.22,3.66c2.37,0,4.92-.41,7.66-1.22,2.74-.82,5.37-1.82,7.88-3,2.52-1.19,4.89-2.44,7.11-3.78,2.22-1.33,4-2.52,5.33-3.55,3.4-2.81,6.81-6.11,10.22-9.88,3.4-3.78,6.66-7.74,9.77-11.88,5.48-7.7,9.7-15.18,12.66-22.43Zm138.59-50.42c-3.85,7.7-7.26,14.18-10.22,19.43-2.96,5.26-6.26,9.77-9.88,13.55-3.63,3.78-8,7.11-13.1,9.99-5.11,2.89-11.66,5.74-19.66,8.55-3.55,6.22-7.59,12.81-12.1,19.77-4.52,6.96-9.59,13.36-15.21,19.21-5.63,5.85-11.92,10.66-18.88,14.44-6.96,3.78-14.51,5.66-22.65,5.66-5.63,0-10-.82-13.1-2.44-3.11-1.63-5.29-3.78-6.55-6.44-1.26-2.67-1.67-5.59-1.22-8.77.44-3.19,1.48-6.33,3.11-9.44,2.08-4.15,5-7.7,8.77-10.66,3.78-2.96,7.81-5.48,12.1-7.55,7.55-3.55,16.17-6.48,25.88-8.77,9.7-2.3,19.06-4.7,28.1-7.22,2.07-3.7,4.07-7.85,6-12.44,1.92-4.59,3.7-9.18,5.33-13.77,1.63-4.59,3.11-8.96,4.44-13.1,1.33-4.14,2.44-7.7,3.33-10.66-1.93,3.41-4.22,7.44-6.89,12.1s-5.66,9.11-9,13.33c-3.33,4.22-6.96,7.85-10.88,10.88-3.92,3.04-8.03,4.55-12.33,4.55-1.19,0-2.48-.11-3.89-.33-1.41-.22-2.78-.7-4.11-1.44-1.33-.74-2.55-1.78-3.67-3.11s-1.89-3.03-2.33-5.11c-.44-2.37-.52-4.66-.22-6.88.29-2.22.85-4.4,1.67-6.55.81-2.14,1.78-4.22,2.89-6.22s2.18-4.03,3.22-6.11c-.74,0-1.44-.22-2.11-.67-.67-.44-.63-1.41.11-2.89.74-1.18,1.41-2.44,2-3.78.59-1.33,1.26-2.67,2-4,2.22-4.29,4.44-8.59,6.66-12.88,2.22-4.29,4.14-8.14,5.77-11.55.89-1.78,2.03-3,3.44-3.67,1.41-.67,3.14-1,5.22-1h13.55c-1.04.89-2.33,1.85-3.89,2.89-1.55,1.04-3,2.74-4.33,5.11-3.85,6.52-7.37,13.03-10.55,19.55-3.19,6.52-6.33,13.1-9.44,19.77-2.67,5.77-4.15,10.59-4.44,14.44-.3,3.85.26,6.55,1.67,8.11,1.41,1.55,3.52,1.78,6.33.67,2.81-1.11,6-3.74,9.55-7.88,3.11-3.55,6.29-7.77,9.55-12.66,3.26-4.89,6.4-9.96,9.44-15.21,3.03-5.25,5.92-10.47,8.66-15.66,2.74-5.18,5.14-9.99,7.22-14.44.89-1.78,2.03-3,3.44-3.67,1.41-.67,3.14-1,5.22-1h11.99c-2.08,1.48-3.89,3.15-5.44,5-1.55,1.85-3,3.96-4.33,6.33-1.33,2.37-2.59,5.07-3.78,8.11-1.19,3.04-2.44,6.41-3.78,10.11-2.81,7.55-5.66,15.7-8.55,24.43-2.89,8.74-5.96,17.55-9.22,26.43,2.37-.74,5-1.7,7.88-2.89,2.89-1.18,5.74-2.67,8.55-4.44,2.81-1.78,5.55-3.89,8.22-6.33,2.67-2.44,5.11-5.22,7.33-8.33,3.4-5.03,6.29-9.85,8.66-14.44,2.37-4.59,4.14-7.92,5.33-10,1.03-1.92,2.07-2.63,3.11-2.11,1.03.52,1.03,1.89,0,4.11Zm-68.63,56.41c-3.55.89-7.37,1.85-11.44,2.89-4.07,1.03-8.18,2.14-12.33,3.33-4.15,1.18-8.14,2.41-11.99,3.67-3.85,1.26-7.33,2.55-10.44,3.89-5.62,2.52-10.33,5.77-14.1,9.77-3.78,4-6.29,7.96-7.55,11.88-1.26,3.92-1.14,7.29.33,10.11,1.48,2.81,4.59,4.22,9.33,4.22s9.92-1.52,15.1-4.55c5.18-3.04,10.18-6.7,14.99-10.99,4.81-4.3,9.25-8.81,13.33-13.55,4.07-4.74,7.36-8.88,9.88-12.44.74-1.19,1.52-2.48,2.33-3.89.81-1.41,1.67-2.85,2.55-4.33Zm185.67-56.64c-2.67,5.77-5.33,11.18-8,16.21-2.67,5.04-5.66,9.44-9,13.22-3.33,3.78-7.18,6.74-11.55,8.88-4.37,2.15-9.59,3.22-15.66,3.22s-10.37-1.03-13.77-3.11c-3.41-2.07-5.85-4.78-7.33-8.11-1.48-3.33-2.11-7.14-1.89-11.44.22-4.29,1.03-8.73,2.44-13.33,1.41-4.59,3.25-9.11,5.55-13.55,2.29-4.44,4.77-8.44,7.44-11.99,4.14-5.63,8.81-9.96,13.99-12.99,5.18-3.03,10.44-4.55,15.77-4.55,5.62,0,9.73,1.41,12.33,4.22,2.59,2.81,3.59,6.52,3,11.1-.3,1.78-1,3.63-2.11,5.55-1.11,1.93-2.41,3.55-3.89,4.89-1.48,1.33-3.04,2.19-4.66,2.55-1.63.37-3.04-.03-4.22-1.22,1.18-1.48,2.48-3.22,3.89-5.22,1.41-2,2.4-4.03,3-6.11,1.03-3.85,1.07-6.62.11-8.33-.96-1.7-2.48-2.55-4.55-2.55s-4.15.59-6.22,1.78c-2.08,1.19-4.19,2.67-6.33,4.44-2.15,1.78-4.18,3.81-6.11,6.11-1.93,2.3-3.63,4.55-5.11,6.77-1.04,1.48-2.26,3.48-3.67,6-1.41,2.52-2.74,5.3-4,8.33-1.26,3.04-2.33,6.26-3.22,9.66-.89,3.41-1.33,6.74-1.33,10,0,4.44,1,8.4,3,11.88,2,3.48,5.37,5.22,10.11,5.22s9.22-1.22,12.99-3.67c3.78-2.44,7.22-5.55,10.33-9.33s5.92-7.96,8.44-12.55c2.52-4.59,4.89-9.11,7.11-13.55,1.03-2.07,2.07-2.89,3.11-2.44,1.03.44,1.03,1.78,0,4Zm55.97,0c-1.63,3.41-3.55,7.26-5.77,11.55-2.22,4.3-4.66,8.44-7.33,12.44-2.67,4-5.63,7.52-8.88,10.55-3.26,3.04-6.66,5-10.22,5.89-1.93.44-4.04.33-6.33-.33-2.3-.67-4.26-2.11-5.89-4.33-1.63-2.22-2.59-5.22-2.89-9-.3-3.78.67-8.55,2.89-14.33.89-2.22,1.96-4.59,3.22-7.11,1.26-2.52,2.59-4.96,4-7.33,1.41-2.37,2.7-4.59,3.89-6.66,1.18-2.07,2.07-3.78,2.67-5.11,1.63-3.7.74-6.33-2.67-7.88-3.41-1.55-8.22-2.41-14.44-2.55l-2.67,7.11c-1.33,3.55-2.96,7.59-4.89,12.1-1.93,4.52-4.07,9.11-6.44,13.77-2.37,4.66-4.89,9.03-7.55,13.1-2.67,4.07-5.33,7.44-8,10.11-.89.74-1.59.7-2.11-.11-.52-.81-.41-1.74.33-2.78,4.44-5.77,8.51-12.1,12.22-18.99,3.7-6.89,7-13.92,9.88-21.1,2.89-7.18,5.33-14.33,7.33-21.43s3.59-13.77,4.78-19.99c.59-3.11,1.78-5.14,3.55-6.11,1.78-.96,3.52-1,5.22-.11,1.7.89,3.11,2.55,4.22,5,1.11,2.44,1.29,5.52.56,9.22-.74,3.11-2.48,6.04-5.22,8.77-2.74,2.74-5.07,4.78-7,6.11,4.14.3,8.92.37,14.33.22,5.4-.15,10.84-.52,16.32-1.11.44.74.56,1.82.33,3.22-.22,1.41-.59,2.89-1.11,4.44-.52,1.55-1.15,3.19-1.89,4.89-.74,1.7-1.41,3.22-2,4.55-.59,1.19-1.59,3.19-3,6-1.41,2.81-2.96,5.96-4.67,9.44-1.7,3.48-3.33,7.15-4.89,10.99-1.55,3.85-2.7,7.37-3.44,10.55-.74,3.19-.93,5.81-.56,7.88.37,2.08,1.67,3.19,3.89,3.33,2.22,0,4.7-1.48,7.44-4.44,2.74-2.96,5.4-6.44,8-10.44,2.59-4,4.96-8.11,7.11-12.33,2.14-4.22,3.81-7.51,5-9.88,1.03-1.92,2.03-2.59,3-2,.96.59.85,2-.33,4.22Zm77.96-.22c-1.63,3.41-3.67,7.41-6.11,11.99-2.44,4.59-5.15,9.03-8.11,13.33-2.96,4.3-6.11,7.96-9.44,10.99-3.33,3.04-6.63,4.7-9.88,5-1.78.15-3.7-.19-5.77-1-2.08-.81-3.78-2.29-5.11-4.44-1.33-2.14-2.11-5.11-2.33-8.88-.22-3.78.48-8.55,2.11-14.33-1.78,2.96-4.07,6.41-6.88,10.33-2.81,3.92-5.85,7.44-9.11,10.55-4.3,4.15-8.26,6.59-11.88,7.33-3.63.74-6.7.18-9.22-1.67-2.52-1.85-4.33-4.78-5.44-8.77-1.11-4-1.3-8.7-.56-14.1.74-5.4,2.55-11.33,5.44-17.77,2.89-6.44,7.14-12.99,12.77-19.66,3.25-4,7.22-7.4,11.88-10.22,4.66-2.81,9.4-4.81,14.21-6,4.81-1.18,9.47-1.33,13.99-.44,4.51.89,8.33,3.04,11.44,6.44,1.63,1.63,2.11,3.19,1.44,4.66-.67,1.48-1.96,2.08-3.89,1.78-1.19-4.14-3.59-6.66-7.22-7.55-3.63-.89-7.52-.22-11.66,2-5.04,2.81-10.22,7.15-15.55,12.99-5.33,5.85-9.99,12.1-13.99,18.77-.44.74-1.11,1.93-2,3.55-.89,1.63-1.81,3.52-2.78,5.66-.96,2.15-1.85,4.37-2.67,6.66-.82,2.3-1.37,4.48-1.67,6.55-.59,3.85-.33,6.66.78,8.44,1.11,1.78,2.67,2.67,4.66,2.67s4.33-.85,7-2.55c2.67-1.7,5.33-4.11,8-7.22,3.85-4.74,7.36-9.73,10.55-14.99,3.18-5.25,6.25-10.62,9.22-16.1,2.52-4.74,4.78-8.36,6.77-10.88,2-2.52,4.77-3.63,8.33-3.33,1.48.15,3,.41,4.55.78,1.55.37,3.14.41,4.78.11-1.19,1.19-2.78,3.37-4.78,6.55-2,3.19-4.07,6.81-6.22,10.88-2.15,4.07-4.11,8.26-5.89,12.55-1.78,4.3-3.04,8.14-3.78,11.55-1.78,8.88-1.04,13.33,2.22,13.33,2.37.15,4.96-1.26,7.77-4.22,2.81-2.96,5.59-6.51,8.33-10.66,2.74-4.14,5.22-8.33,7.44-12.55,2.22-4.22,3.92-7.51,5.11-9.88,1.03-1.92,2.07-2.67,3.11-2.22,1.03.44,1.03,1.78,0,4Zm59.3.22c-2.67,5.77-5.33,11.18-8,16.21-2.67,5.04-5.66,9.44-9,13.22-3.33,3.78-7.18,6.74-11.55,8.88-4.37,2.15-9.59,3.22-15.66,3.22s-10.37-1.03-13.77-3.11c-3.41-2.07-5.85-4.78-7.33-8.11-1.48-3.33-2.11-7.14-1.89-11.44.22-4.29,1.03-8.73,2.44-13.33,1.41-4.59,3.25-9.11,5.55-13.55,2.29-4.44,4.77-8.44,7.44-11.99,4.14-5.63,8.81-9.96,13.99-12.99,5.18-3.03,10.44-4.55,15.77-4.55,5.62,0,9.73,1.41,12.33,4.22,2.59,2.81,3.59,6.52,3,11.1-.3,1.78-1,3.63-2.11,5.55-1.11,1.93-2.41,3.55-3.89,4.89-1.48,1.33-3.04,2.19-4.66,2.55-1.63.37-3.04-.03-4.22-1.22,1.18-1.48,2.48-3.22,3.89-5.22,1.41-2,2.4-4.03,3-6.11,1.03-3.85,1.07-6.62.11-8.33-.96-1.7-2.48-2.55-4.55-2.55s-4.15.59-6.22,1.78c-2.08,1.19-4.19,2.67-6.33,4.44-2.15,1.78-4.18,3.81-6.11,6.11-1.93,2.3-3.63,4.55-5.11,6.77-1.04,1.48-2.26,3.48-3.67,6-1.41,2.52-2.74,5.3-4,8.33-1.26,3.04-2.33,6.26-3.22,9.66-.89,3.41-1.33,6.74-1.33,10,0,4.44,1,8.4,3,11.88,2,3.48,5.37,5.22,10.11,5.22s9.22-1.22,12.99-3.67c3.78-2.44,7.22-5.55,10.33-9.33s5.92-7.96,8.44-12.55c2.52-4.59,4.89-9.11,7.11-13.55,1.03-2.07,2.07-2.89,3.11-2.44,1.03.44,1.03,1.78,0,4Zm111.05-.22c-1.63,3.41-3.67,7.48-6.11,12.22-2.44,4.74-5.22,9.29-8.33,13.66-3.11,4.37-6.55,8.11-10.33,11.22s-7.74,4.66-11.88,4.66c-2.08,0-4.15-.37-6.22-1.11-2.08-.74-3.81-2.11-5.22-4.11-1.41-2-2.26-4.66-2.55-8-.3-3.33.37-7.59,2-12.77.89-2.96,2.37-6.33,4.44-10.11,2.07-3.78,4.67-8.18,7.77-13.22,1.33-2.22,2.07-4.14,2.22-5.77.15-1.63-.41-2.59-1.67-2.89-1.26-.29-3.22.3-5.89,1.78-2.67,1.48-6.15,4.22-10.44,8.22-2.37,2.22-5.22,5.3-8.55,9.22-3.33,3.92-6.55,8.14-9.66,12.66-3.11,4.52-5.89,9.03-8.33,13.55-2.44,4.52-4.04,8.41-4.77,11.66-2.52,0-4.48-1.22-5.89-3.67-1.41-2.44-1.82-5.29-1.22-8.55.74-4.89,2-9.29,3.78-13.21,1.78-3.92,3.63-7.96,5.55-12.1,1.78-3.7,3.4-7.33,4.89-10.88,1.48-3.55,2.18-6.14,2.11-7.77-.08-1.63-1.3-1.89-3.67-.78-2.37,1.11-6.44,4.41-12.21,9.88-3.85,3.41-8.33,8.44-13.44,15.1s-10.85,16.07-17.21,28.21c-.74,1.63-1.7,2.63-2.89,3-1.19.37-3.04.56-5.55.56-1.63.15-2.96.22-4,.22s-2.14.37-3.33,1.11c5.33-10.66,10.33-21.1,14.99-31.32s9.73-20.36,15.21-30.43c2.81-5.33,5.25-9.03,7.33-11.11s4.89-3.03,8.44-2.89c1.48.15,3,.41,4.55.78,1.55.37,3.14.41,4.78.11-1.63.89-3.59,2.81-5.89,5.77-2.3,2.96-4.66,6.44-7.11,10.44-2.44,4-4.89,8.26-7.33,12.77-2.44,4.52-4.63,8.77-6.55,12.77,2.22-2.81,5-6.11,8.33-9.88,3.33-3.78,6.7-7.14,10.11-10.11,2.67-2.37,5.51-4.92,8.55-7.66,3.03-2.74,6-5.18,8.88-7.33,2.89-2.14,5.63-3.81,8.22-5,2.59-1.18,4.85-1.48,6.77-.89,2.07.74,3.4,2,4,3.78.59,1.78.37,3.78-.67,6-2.08,4.74-4.63,9.74-7.66,14.99-3.04,5.26-5.89,10.63-8.55,16.1,2.22-2.81,5-6.11,8.33-9.88,3.33-3.78,6.7-7.14,10.11-10.11,2.67-2.37,5.96-4.92,9.88-7.66,3.92-2.74,7.88-5.18,11.88-7.33,4-2.14,7.77-3.81,11.33-5,3.55-1.18,6.22-1.48,8-.89-4.44,8-8.52,15.62-12.22,22.88-1.63,3.11-3.19,6.3-4.66,9.55-1.48,3.26-2.89,6.41-4.22,9.44-1.33,3.04-2.48,5.89-3.44,8.55-.96,2.67-1.67,4.96-2.11,6.89-.74,4.59-.67,7.59.22,9,.89,1.41,2.07,2.11,3.55,2.11,2.81,0,5.78-1.52,8.88-4.55,3.11-3.03,6.07-6.62,8.88-10.77,2.81-4.14,5.33-8.4,7.55-12.77,2.22-4.37,3.92-7.81,5.11-10.33.89-1.92,1.89-2.63,3-2.11,1.11.52,1.15,1.89.11,4.11Zm-7.77-57.75c-1.19,1.78-2.63,3.59-4.33,5.44-1.7,1.85-3.67,3.52-5.89,5-2.22,1.48-4.7,2.67-7.44,3.55-2.74.89-5.66,1.26-8.77,1.11-2.96-.15-5.81-.59-8.55-1.33-2.74-.74-5.44-1.52-8.11-2.33-2.67-.81-5.33-1.55-8-2.22s-5.33-1.07-8-1.22c-3.41-.29-6.26.19-8.55,1.44-2.3,1.26-4.11,2.78-5.44,4.55-.15.3-.59.48-1.33.55-.74.08-1.48.08-2.22,0-.74-.07-1.41-.18-2-.33-.59-.15-.89-.37-.89-.67,2.52-3.25,6.03-6.48,10.55-9.66,4.52-3.18,9.88-4.63,16.1-4.33,2.81.15,5.59.52,8.33,1.11,2.74.59,5.48,1.3,8.22,2.11,2.74.82,5.4,1.55,8,2.22,2.59.67,5.22,1.08,7.88,1.22,3.7.3,6.74-.18,9.11-1.44,2.37-1.26,4.37-2.92,6-5,0-.15.33-.26,1-.33.67-.07,1.33-.11,2-.11s1.26.08,1.78.22c.52.15.7.3.56.44Zm21.1,88.62c2.96-2.52,5.66-5.59,8.11-9.22,2.44-3.63,4.74-7.51,6.89-11.66,2.14-4.14,4.14-8.36,6-12.66,1.85-4.29,3.59-8.33,5.22-12.1,1.63-3.78,3.18-7.11,4.66-10,1.48-2.89,3.03-5.07,4.66-6.55,1.18-1.18,2.37-2.07,3.55-2.67,1.18-.59,2.59-1,4.22-1.22,1.63-.22,3.52-.33,5.66-.33h8.11c.59,0,.67.19.22.55-.44.37-1.11.78-2,1.22s-1.96.85-3.22,1.22c-1.26.37-2.33.56-3.22.56-4.3-.15-7.33.7-9.11,2.55-1.78,1.85-3.63,4.48-5.55,7.88-2.37,4.3-4.92,9.92-7.66,16.88-2.74,6.96-5.85,13.81-9.33,20.54-3.48,6.74-7.41,12.55-11.77,17.43-4.37,4.89-9.44,7.33-15.21,7.33-3.55,0-6.85-.63-9.88-1.89-3.04-1.26-5.52-3.66-7.44-7.22-2.67-4.89-3.44-8.81-2.33-11.77,1.11-2.96,2.7-4.85,4.78-5.66,2.07-.81,3.85-.44,5.33,1.11,1.48,1.55,1.26,4.41-.67,8.55-.59,1.19-.74,2.44-.44,3.78.29,1.33.85,2.55,1.67,3.67.81,1.11,1.85,2,3.11,2.67,1.26.67,2.55,1,3.89,1,2.52-.15,4.7-.48,6.55-1,1.85-.52,3.59-1.52,5.22-3Zm47.75-61.74c.89-1.78,2.03-3,3.44-3.67,1.41-.67,3.14-1,5.22-1h11.99c-1.63,1.33-3.04,2.55-4.22,3.66-1.19,1.11-2.33,2.44-3.44,4s-2.26,3.48-3.44,5.77c-1.19,2.3-2.59,5.15-4.22,8.55-1.63,3.11-3.22,6.33-4.78,9.66-1.55,3.33-3.04,6.59-4.44,9.77-1.41,3.19-2.63,6.15-3.67,8.88-1.04,2.74-1.7,5.07-2,7-1.04,4.74-1,8.11.11,10.11s2.48,3.07,4.11,3.22c2.67,0,5.37-1.18,8.11-3.55,2.74-2.37,5.37-5.37,7.88-9,2.52-3.63,4.92-7.62,7.22-11.99,2.29-4.37,4.4-8.55,6.33-12.55.89-1.92,1.89-2.63,3-2.11,1.11.52,1.14,1.89.11,4.11-1.78,3.85-3.85,8.11-6.22,12.77-2.37,4.66-5.04,9.07-8,13.21-2.96,4.15-6.22,7.63-9.77,10.44-3.55,2.81-7.33,4.22-11.33,4.22-2.52,0-4.74-.63-6.66-1.89-1.93-1.26-3.37-3.11-4.33-5.55-.96-2.44-1.44-5.44-1.44-9s.74-7.55,2.22-11.99c1.03-3.25,2.29-6.74,3.78-10.44,1.48-3.7,3.07-7.44,4.78-11.22,1.7-3.78,3.4-7.51,5.11-11.22,1.7-3.7,3.22-7.11,4.55-10.22Zm106.83,31.09c-1.78,3.85-3.85,8.11-6.22,12.77-2.37,4.66-5.04,9.07-8,13.21-2.96,4.15-6.22,7.59-9.77,10.33-3.55,2.74-7.33,4.11-11.33,4.11-2.52,0-4.74-.63-6.66-1.89-1.93-1.26-3.37-3.11-4.33-5.55-.96-2.44-1.44-5.44-1.44-9s.74-7.55,2.22-11.99c-1.93,3.41-4.04,6.77-6.33,10.11-2.3,3.33-4.74,6.37-7.33,9.11-2.59,2.74-5.3,4.96-8.11,6.66-2.81,1.7-5.55,2.55-8.22,2.55-1.19,0-2.48-.11-3.89-.33-1.41-.22-2.78-.7-4.11-1.44-1.33-.74-2.55-1.78-3.67-3.11s-1.89-3.03-2.33-5.11c-.44-2.37-.52-4.66-.22-6.88.29-2.22.85-4.4,1.67-6.55.81-2.14,1.78-4.22,2.89-6.22s2.18-4.03,3.22-6.11c-.74,0-1.44-.22-2.11-.67-.67-.44-.63-1.41.11-2.89.74-1.18,1.41-2.44,2-3.78.59-1.33,1.26-2.67,2-4,2.22-4.29,4.44-8.59,6.66-12.88,2.22-4.29,4.14-8.14,5.77-11.55.89-1.78,2.03-3,3.44-3.67,1.41-.67,3.14-1,5.22-1h13.55c-1.33.89-2.52,1.81-3.55,2.78-1.04.96-2.11,2.11-3.22,3.44-1.11,1.33-2.26,2.96-3.44,4.89-1.19,1.93-2.52,4.44-4,7.55-2.08,3.85-3.92,7.55-5.55,11.11-1.63,3.11-3.19,6.29-4.67,9.55-1.48,3.26-2.74,5.92-3.78,8-2.67,5.77-4.15,10.59-4.44,14.44-.3,3.85.26,6.55,1.67,8.11,1.41,1.55,3.52,1.78,6.33.67,2.81-1.11,6-3.74,9.55-7.88,3.11-3.55,6.18-7.77,9.22-12.66,3.03-4.89,5.96-9.96,8.77-15.21,2.81-5.25,5.51-10.47,8.11-15.66,2.59-5.18,4.92-9.99,7-14.44.89-1.78,2.03-3,3.44-3.67,1.41-.67,3.14-1,5.22-1h11.99c-1.63,1.34-3.04,2.56-4.22,3.68-1.19,1.11-2.33,2.45-3.44,4.01-1.11,1.56-2.26,3.49-3.44,5.79-1.19,2.3-2.59,5.16-4.22,8.58-1.63,3.12-3.22,6.35-4.78,9.69s-3.04,6.61-4.44,9.8c-1.41,3.19-2.63,6.16-3.66,8.91-1.04,2.75-1.7,5.09-2,7.02-1.04,4.75-1,8.13.11,10.14,1.11,2.01,2.48,3.08,4.11,3.23,2.67,0,5.37-1.18,8.11-3.55,2.74-2.37,5.37-5.37,7.88-9,2.52-3.63,4.92-7.62,7.22-11.99,2.29-4.37,4.4-8.55,6.33-12.55.89-1.92,1.89-2.63,3-2.11,1.11.52,1.15,1.89.11,4.11Zm14.21-35.54c5.48-10.51,11.55-21.47,18.21-32.87,6.66-11.4,13.69-21.77,21.1-31.09,4.89-5.92,9.77-11.58,14.66-16.99,4.89-5.4,9.81-10.14,14.77-14.21,4.96-4.07,10.03-7.36,15.21-9.88,5.18-2.52,10.58-3.92,16.21-4.22,5.48-.29,9.7.44,12.66,2.22,2.96,1.78,4.85,4.3,5.66,7.55.81,3.26.7,7.07-.33,11.44-1.04,4.37-2.78,8.96-5.22,13.77-2.44,4.81-5.52,9.74-9.22,14.77-3.7,5.04-7.77,9.77-12.22,14.21-9.63,9.63-20.62,17.7-32.98,24.21-12.36,6.52-27.36,12.59-44.98,18.21-1.63,3.11-3.22,6.07-4.78,8.88-1.55,2.81-2.93,5.48-4.11,8-2.81,5.63-5.41,11.59-7.77,17.88-2.37,6.29-4.04,12.22-5,17.77-.96,5.55-1,10.29-.11,14.21.89,3.93,3.25,6.26,7.11,7,4.89,1.04,11.25-3.18,19.1-12.66,3.11-3.7,6.18-8.11,9.22-13.21,3.03-5.11,5.51-9.88,7.44-14.33,1.48-3.7,2.52-7.25,3.11-10.66.59-3.4.63-6.44.11-9.11-.52-2.67-1.7-4.7-3.55-6.11-1.85-1.41-4.55-1.96-8.11-1.67-1.63.15-2.85-.07-3.67-.67-.82-.59-1.15-1.22-1-1.89.15-.67.85-1.26,2.11-1.78,1.26-.52,3.14-.55,5.66-.11,4,.59,7.33,1.89,9.99,3.89,2.67,2,4.7,4.44,6.11,7.33,1.41,2.89,2.22,6.07,2.44,9.55.22,3.48-.04,7-.78,10.55-1.04,4.74-2.63,9.48-4.78,14.21-2.15,4.74-4.78,9.18-7.88,13.33-3.11,4.15-6.66,7.74-10.66,10.77-4,3.04-8.29,5.15-12.88,6.33-6.37,1.78-11.74,2.37-16.1,1.78-4.37-.59-7.77-2-10.22-4.22-2.44-2.22-4.04-5.07-4.78-8.55-.74-3.48-.59-7.22.44-11.22.89-3.41,2.18-7.18,3.89-11.33,1.7-4.14,3.67-8.51,5.89-13.1-5.18,9.77-9.7,18.03-13.55,24.76-3.85,6.74-6.89,11.14-9.11,13.21-.89.74-1.59.7-2.11-.11-.52-.81-.41-1.74.33-2.78,2.22-2.96,4.66-6.74,7.33-11.33,2.67-4.59,5.48-9.66,8.44-15.21,2.96-5.55,6-11.47,9.11-17.77,3.11-6.29,6.29-12.55,9.55-18.77Zm.44,0c-3.26.44-6.44.3-9.55-.44-3.11-.74-5.7-2.37-7.77-4.89-1.04-1.18-1.85-2.48-2.44-3.89-.59-1.41-.74-2.85-.44-4.33.15-1.03.56-1.78,1.22-2.22.67-.44,1.33-.59,2-.44.67.15,1.22.48,1.67,1,.44.52.67,1.3.67,2.33v.44c.59,3.55,2.63,5.74,6.11,6.55,3.48.82,7.22,1,11.22.56l-2.67,5.33Zm17.1-9.77c11.99-3.4,24.1-8.33,36.31-14.77,12.22-6.44,23.28-14.77,33.21-24.99,5.33-5.48,10.03-11.29,14.1-17.43,4.07-6.14,7.03-11.81,8.88-16.99,1.85-5.18,2.29-9.47,1.33-12.88-.96-3.4-3.74-5.11-8.33-5.11-4.89,0-9.96,1.55-15.21,4.66-5.26,3.11-10.55,7.26-15.88,12.44-5.33,5.19-10.55,11.07-15.66,17.66-5.11,6.59-10.03,13.29-14.77,20.1-4.74,6.81-9.14,13.48-13.22,19.99-4.07,6.52-7.66,12.29-10.77,17.32Zm122.6,45.09c-1.63,3.41-3.67,7.41-6.11,11.99-2.44,4.59-5.15,9.03-8.11,13.33-2.96,4.3-6.11,7.96-9.44,10.99-3.33,3.04-6.63,4.7-9.88,5-1.78.15-3.7-.19-5.77-1-2.08-.81-3.78-2.29-5.11-4.44-1.33-2.14-2.11-5.11-2.33-8.88-.22-3.78.48-8.55,2.11-14.33-1.78,2.96-4.07,6.41-6.88,10.33-2.81,3.92-5.85,7.44-9.11,10.55-4.3,4.15-8.26,6.59-11.88,7.33-3.63.74-6.7.18-9.22-1.67-2.52-1.85-4.33-4.78-5.44-8.77-1.11-4-1.3-8.7-.56-14.1.74-5.4,2.55-11.33,5.44-17.77,2.89-6.44,7.14-12.99,12.77-19.66,3.25-4,7.22-7.4,11.88-10.22,4.66-2.81,9.4-4.81,14.21-6,4.81-1.18,9.47-1.33,13.99-.44,4.51.89,8.33,3.04,11.44,6.44,1.63,1.63,2.11,3.19,1.44,4.66-.67,1.48-1.96,2.08-3.89,1.78-1.19-4.14-3.59-6.66-7.22-7.55-3.63-.89-7.52-.22-11.66,2-5.04,2.81-10.22,7.15-15.55,12.99-5.33,5.85-9.99,12.1-13.99,18.77-.44.74-1.11,1.93-2,3.55-.89,1.63-1.81,3.52-2.78,5.66-.96,2.15-1.85,4.37-2.67,6.66-.82,2.3-1.37,4.48-1.67,6.55-.59,3.85-.33,6.66.78,8.44,1.11,1.78,2.67,2.67,4.66,2.67s4.33-.85,7-2.55c2.67-1.7,5.33-4.11,8-7.22,3.85-4.74,7.36-9.73,10.55-14.99,3.18-5.25,6.25-10.62,9.22-16.1,2.52-4.74,4.78-8.36,6.77-10.88,2-2.52,4.77-3.63,8.33-3.33,1.48.15,3,.41,4.55.78,1.55.37,3.14.41,4.78.11-1.19,1.19-2.78,3.37-4.78,6.55-2,3.19-4.07,6.81-6.22,10.88-2.15,4.07-4.11,8.26-5.89,12.55-1.78,4.3-3.04,8.14-3.78,11.55-1.78,8.88-1.04,13.33,2.22,13.33,2.37.15,4.96-1.26,7.77-4.22,2.81-2.96,5.59-6.51,8.33-10.66,2.74-4.14,5.22-8.33,7.44-12.55,2.22-4.22,3.92-7.51,5.11-9.88,1.03-1.92,2.07-2.67,3.11-2.22,1.03.44,1.03,1.78,0,4ZM198.87,375.86c5.48-10.51,11.55-21.47,18.21-32.87,6.66-11.4,13.69-21.77,21.1-31.09,4.89-5.92,9.77-11.58,14.66-16.99,4.89-5.4,9.81-10.14,14.77-14.21,4.96-4.07,10.03-7.36,15.21-9.88,5.18-2.52,10.58-3.92,16.21-4.22,5.48-.29,9.7.44,12.66,2.22,2.96,1.78,4.85,4.3,5.66,7.55.81,3.26.7,7.07-.33,11.44-1.04,4.37-2.78,8.96-5.22,13.77-2.44,4.81-5.52,9.74-9.22,14.77-3.7,5.04-7.77,9.77-12.22,14.21-9.63,9.63-20.62,17.7-32.98,24.21-12.36,6.52-27.36,12.59-44.98,18.21-1.63,3.11-3.22,6.07-4.78,8.88-1.55,2.81-2.93,5.48-4.11,8-2.81,5.63-5.41,11.59-7.77,17.88-2.37,6.29-4.04,12.22-5,17.77-.96,5.55-1,10.29-.11,14.21.89,3.93,3.25,6.26,7.11,7,4.89,1.04,11.25-3.18,19.1-12.66,3.11-3.7,6.18-8.11,9.22-13.21,3.03-5.11,5.51-9.88,7.44-14.33,1.48-3.7,2.52-7.25,3.11-10.66.59-3.4.63-6.44.11-9.11-.52-2.67-1.7-4.7-3.55-6.11-1.85-1.41-4.55-1.96-8.11-1.67-1.63.15-2.85-.07-3.67-.67-.82-.59-1.15-1.22-1-1.89.15-.67.85-1.26,2.11-1.78,1.26-.52,3.14-.55,5.66-.11,4,.59,7.33,1.89,9.99,3.89,2.67,2,4.7,4.44,6.11,7.33,1.41,2.89,2.22,6.07,2.44,9.55.22,3.48-.04,7-.78,10.55-1.04,4.74-2.63,9.48-4.78,14.21-2.15,4.74-4.78,9.18-7.88,13.33-3.11,4.15-6.66,7.74-10.66,10.77-4,3.04-8.29,5.15-12.88,6.33-6.37,1.78-11.74,2.37-16.1,1.78-4.37-.59-7.77-2-10.22-4.22-2.44-2.22-4.04-5.07-4.78-8.55-.74-3.48-.59-7.22.44-11.22.89-3.41,2.18-7.18,3.89-11.33,1.7-4.14,3.67-8.51,5.89-13.1-5.18,9.77-9.7,18.03-13.55,24.76-3.85,6.74-6.89,11.14-9.11,13.21-.89.74-1.59.7-2.11-.11-.52-.81-.41-1.74.33-2.78,2.22-2.96,4.66-6.74,7.33-11.33,2.67-4.59,5.48-9.66,8.44-15.21,2.96-5.55,6-11.47,9.11-17.77,3.11-6.29,6.29-12.55,9.55-18.77Zm.44,0c-3.26.44-6.44.3-9.55-.44-3.11-.74-5.7-2.37-7.77-4.89-1.04-1.18-1.85-2.48-2.44-3.89-.59-1.41-.74-2.85-.44-4.33.15-1.03.56-1.78,1.22-2.22.67-.44,1.33-.59,2-.44.67.15,1.22.48,1.67,1,.44.52.67,1.3.67,2.33v.44c.59,3.55,2.63,5.74,6.11,6.55,3.48.82,7.22,1,11.22.56l-2.67,5.33Zm17.1-9.77c11.99-3.4,24.1-8.33,36.31-14.77,12.22-6.44,23.28-14.77,33.21-24.99,5.33-5.48,10.03-11.29,14.1-17.43,4.07-6.14,7.03-11.81,8.88-16.99,1.85-5.18,2.29-9.47,1.33-12.88-.96-3.4-3.74-5.11-8.33-5.11-4.89,0-9.96,1.55-15.21,4.66-5.26,3.11-10.55,7.26-15.88,12.44-5.33,5.19-10.55,11.07-15.66,17.66-5.11,6.59-10.03,13.29-14.77,20.1-4.74,6.81-9.14,13.48-13.22,19.99-4.07,6.52-7.66,12.29-10.77,17.32Zm124.15,45.31c-1.78,3.85-3.85,8.11-6.22,12.77-2.37,4.66-5.04,9.07-8,13.21-2.96,4.15-6.22,7.59-9.77,10.33-3.55,2.74-7.33,4.11-11.33,4.11-2.52,0-4.74-.63-6.66-1.89-1.93-1.26-3.37-3.11-4.33-5.55-.96-2.44-1.44-5.44-1.44-9s.74-7.55,2.22-11.99c-1.93,3.41-4.04,6.77-6.33,10.11-2.3,3.33-4.74,6.37-7.33,9.11-2.59,2.74-5.3,4.96-8.11,6.66-2.81,1.7-5.55,2.55-8.22,2.55-1.19,0-2.48-.11-3.89-.33-1.41-.22-2.78-.7-4.11-1.44-1.33-.74-2.55-1.78-3.67-3.11s-1.89-3.03-2.33-5.11c-.44-2.37-.52-4.66-.22-6.88.29-2.22.85-4.4,1.67-6.55.81-2.14,1.78-4.22,2.89-6.22s2.18-4.03,3.22-6.11c-.74,0-1.44-.22-2.11-.67-.67-.44-.63-1.41.11-2.89.74-1.18,1.41-2.44,2-3.78.59-1.33,1.26-2.67,2-4,2.22-4.29,4.44-8.59,6.66-12.88,2.22-4.29,4.14-8.14,5.77-11.55.89-1.78,2.03-3,3.44-3.67,1.41-.67,3.14-1,5.22-1h13.55c-1.33.89-2.52,1.81-3.55,2.78-1.04.96-2.11,2.11-3.22,3.44-1.11,1.33-2.26,2.96-3.44,4.89-1.19,1.93-2.52,4.44-4,7.55-2.08,3.85-3.92,7.55-5.55,11.11-1.63,3.11-3.19,6.29-4.67,9.55-1.48,3.26-2.74,5.92-3.78,8-2.67,5.77-4.15,10.59-4.44,14.44-.3,3.85.26,6.55,1.67,8.11,1.41,1.55,3.52,1.78,6.33.67,2.81-1.11,6-3.74,9.55-7.88,3.11-3.55,6.18-7.77,9.22-12.66,3.03-4.89,5.96-9.96,8.77-15.21,2.81-5.25,5.51-10.47,8.11-15.66,2.59-5.18,4.92-9.99,7-14.44.89-1.78,2.03-3,3.44-3.67,1.41-.67,3.14-1,5.22-1h11.99c-1.63,1.34-3.04,2.56-4.22,3.68-1.19,1.11-2.33,2.45-3.44,4.01-1.11,1.56-2.26,3.49-3.44,5.79-1.19,2.3-2.59,5.16-4.22,8.58-1.63,3.12-3.22,6.35-4.78,9.69s-3.04,6.61-4.44,9.8c-1.41,3.19-2.63,6.16-3.66,8.91-1.04,2.75-1.7,5.09-2,7.02-1.04,4.75-1,8.13.11,10.14,1.11,2.01,2.48,3.08,4.11,3.23,2.67,0,5.37-1.18,8.11-3.55,2.74-2.37,5.37-5.37,7.88-9,2.52-3.63,4.92-7.62,7.22-11.99,2.29-4.37,4.4-8.55,6.33-12.55.89-1.92,1.89-2.63,3-2.11,1.11.52,1.15,1.89.11,4.11Zm87.06-.22c-2.81,5.77-5.41,10.96-7.77,15.55-2.37,4.59-4.85,8.63-7.44,12.1-2.59,3.48-5.37,6.52-8.33,9.11-2.96,2.59-6.52,4.85-10.66,6.77-2.52,6.96-6.11,14.4-10.77,22.32-4.67,7.92-10.14,15.21-16.44,21.88-6.29,6.66-13.21,12.21-20.77,16.66-7.55,4.44-15.33,6.66-23.32,6.66-13.92,0-20.88-5.7-20.88-17.1,0-5.48,1.89-10.33,5.66-14.55,3.78-4.22,8.33-7.88,13.66-10.99,5.48-3.26,10.81-6,15.99-8.22,5.18-2.22,10.25-4.22,15.21-6,4.96-1.78,9.77-3.41,14.44-4.89,4.67-1.48,9.14-3.11,13.44-4.89,1.33-3.85,2.41-7.81,3.22-11.88.81-4.07,1.44-8.33,1.89-12.77.44-4.29.67-8.11.67-11.44s-.15-5.59-.44-6.77c-1.78,3.41-4.19,7.59-7.22,12.55-3.04,4.96-6.44,9.59-10.22,13.88-3.78,4.3-7.81,7.7-12.1,10.22-4.3,2.52-8.66,3.11-13.1,1.78-5.63-2.37-9.14-5.96-10.55-10.77-1.41-4.81-1.44-10.14-.11-15.99,1.33-5.85,3.67-11.81,7-17.88,3.33-6.07,7.07-11.55,11.22-16.44,3.25-4,7-7.36,11.22-10.11,4.22-2.74,8.62-4.66,13.22-5.78,4.59-1.11,9.22-1.26,13.88-.44,4.66.82,9.07,2.85,13.22,6.11,1.92,1.63,3,3.19,3.22,4.66.22,1.48,0,2.63-.67,3.44-.67.82-1.52,1.15-2.55,1-1.04-.15-1.85-1.03-2.44-2.67-1.48-4-3.52-6.51-6.11-7.55-2.59-1.03-5.52-1-8.77.11-3.26,1.11-6.7,3.07-10.33,5.89-3.63,2.81-7.15,6.07-10.55,9.77-4,4.59-7.7,9.55-11.11,14.88-3.41,5.33-6.03,10.4-7.88,15.21-1.85,4.81-2.74,9.03-2.67,12.66.07,3.63,1.59,6.11,4.55,7.44,3.25,1.33,6.92.55,10.99-2.33,4.07-2.89,8-6.74,11.77-11.55,3.78-4.81,7.14-9.88,10.11-15.21,2.96-5.33,4.96-9.77,6-13.33.74-2.52,1.7-4.29,2.89-5.33,1.18-1.03,2.44-1.7,3.78-2,1.33-.29,2.63-.44,3.89-.44s2.33-.37,3.22-1.11c1.48,8.88,1.96,17.88,1.44,26.99-.52,9.11-1.96,18.1-4.33,26.99,2.67-1.92,5.37-4.07,8.11-6.44,2.74-2.37,5.22-5.03,7.44-8,3.7-4.89,6.48-9.51,8.33-13.88,1.85-4.37,3.37-7.59,4.55-9.66,1.03-1.92,2.11-2.67,3.22-2.22s1.15,1.78.11,4Zm-50.2,50.86c-1.19.44-2.44.89-3.78,1.33-1.33.44-2.67.89-4,1.33-8.15,2.81-16.55,5.89-25.21,9.22-8.66,3.33-16.55,7.36-23.65,12.1-3.55,2.37-6.62,5.37-9.22,9-2.59,3.63-4.29,7.11-5.11,10.44-.81,3.33-.44,6.22,1.11,8.66s4.63,3.66,9.22,3.66c2.37,0,4.92-.41,7.66-1.22,2.74-.82,5.37-1.82,7.88-3,2.52-1.19,4.89-2.44,7.11-3.78,2.22-1.33,4-2.52,5.33-3.55,3.4-2.81,6.81-6.11,10.22-9.88,3.4-3.78,6.66-7.74,9.77-11.88,5.48-7.7,9.7-15.18,12.66-22.43Zm105.05-51.31c-2.08,4.44-4.3,9.14-6.66,14.1-2.37,4.96-5.18,9.55-8.44,13.77-3.26,4.22-7.07,7.66-11.44,10.33-4.37,2.67-9.66,4-15.88,4-5.63,0-10.55-1.74-14.77-5.22-4.22-3.48-6.41-8.77-6.55-15.88,0-3.26.41-6.74,1.22-10.44.81-3.7,2-7.36,3.55-10.99,1.55-3.63,3.37-7.14,5.44-10.55,2.07-3.4,4.37-6.59,6.89-9.55,2.81-3.25,5.92-6.22,9.33-8.88,3.4-2.67,6.81-4.7,10.22-6.11,3.4-1.41,6.7-2.11,9.88-2.11s6.03.89,8.55,2.67c2.07,1.63,3.29,3.7,3.67,6.22.37,2.52-.04,5.3-1.22,8.33-1.19,3.04-3.04,6.11-5.55,9.22-2.52,3.11-5.55,6-9.11,8.66-1.78,1.33-3.89,2.59-6.33,3.78-2.44,1.19-5,2.22-7.66,3.11s-5.18,1.59-7.55,2.11c-2.37.52-4.3.78-5.77.78-.89,2.08-1.67,4.81-2.33,8.22-.67,3.41-.89,6.74-.67,9.99.22,3.26,1.11,6.11,2.67,8.55,1.55,2.44,4.18,3.67,7.88,3.67,4.89,0,9.29-1.44,13.21-4.33,3.92-2.89,7.4-6.33,10.44-10.33,3.03-4,5.63-8.14,7.77-12.44,2.15-4.29,3.89-7.92,5.22-10.88.44-1.03,1-1.81,1.67-2.33.67-.52,1.26-.78,1.78-.78s.89.26,1.11.78c.22.52.03,1.37-.56,2.55Zm-23.1-6.44c2.96-2.52,5.44-5.33,7.44-8.44s3.37-6,4.11-8.66c.74-2.67.89-4.89.44-6.66-.44-1.78-1.55-2.63-3.33-2.55-1.78.08-4.22,1.26-7.33,3.55-3.11,2.3-6.96,6.18-11.55,11.66-2.96,3.55-5.66,7.41-8.11,11.55-2.44,4.15-4.19,7.26-5.22,9.33,1.03,0,2.44-.18,4.22-.56,1.78-.37,3.78-.96,6-1.78,2.22-.81,4.48-1.85,6.77-3.11,2.29-1.26,4.48-2.7,6.55-4.33Zm135.48,6.88c-1.63,3.41-3.67,7.48-6.11,12.22-2.44,4.74-5.22,9.29-8.33,13.66-3.11,4.37-6.55,8.11-10.33,11.22s-7.74,4.66-11.88,4.66c-2.08,0-4.15-.37-6.22-1.11-2.08-.74-3.81-2.11-5.22-4.11-1.41-2-2.26-4.66-2.55-8-.3-3.33.37-7.59,2-12.77.89-2.96,2.37-6.33,4.44-10.11,2.07-3.78,4.67-8.18,7.77-13.22,1.33-2.22,2.07-4.14,2.22-5.77.15-1.63-.41-2.59-1.67-2.89-1.26-.29-3.22.3-5.89,1.78-2.67,1.48-6.15,4.22-10.44,8.22-2.37,2.22-5.22,5.3-8.55,9.22-3.33,3.92-6.55,8.14-9.66,12.66-3.11,4.52-5.89,9.03-8.33,13.55-2.44,4.52-4.04,8.41-4.77,11.66-2.52,0-4.48-1.22-5.89-3.67-1.41-2.44-1.82-5.29-1.22-8.55.74-4.89,2-9.29,3.78-13.21,1.78-3.92,3.63-7.96,5.55-12.1,1.78-3.7,3.4-7.33,4.89-10.88,1.48-3.55,2.18-6.14,2.11-7.77-.08-1.63-1.3-1.89-3.67-.78-2.37,1.11-6.44,4.41-12.21,9.88-3.85,3.41-8.33,8.44-13.44,15.1s-10.85,16.07-17.21,28.21c-.74,1.63-1.7,2.63-2.89,3-1.19.37-3.04.56-5.55.56-1.63.15-2.96.22-4,.22s-2.14.37-3.33,1.11c5.33-10.66,10.33-21.1,14.99-31.32s9.73-20.36,15.21-30.43c2.81-5.33,5.25-9.03,7.33-11.11s4.89-3.03,8.44-2.89c1.48.15,3,.41,4.55.78,1.55.37,3.14.41,4.78.11-1.63.89-3.59,2.81-5.89,5.77-2.3,2.96-4.66,6.44-7.11,10.44-2.44,4-4.89,8.26-7.33,12.77-2.44,4.52-4.63,8.77-6.55,12.77,2.22-2.81,5-6.11,8.33-9.88,3.33-3.78,6.7-7.14,10.11-10.11,2.67-2.37,5.51-4.92,8.55-7.66,3.03-2.74,6-5.18,8.88-7.33,2.89-2.14,5.63-3.81,8.22-5,2.59-1.18,4.85-1.48,6.77-.89,2.07.74,3.4,2,4,3.78.59,1.78.37,3.78-.67,6-2.08,4.74-4.63,9.74-7.66,14.99-3.04,5.26-5.89,10.63-8.55,16.1,2.22-2.81,5-6.11,8.33-9.88,3.33-3.78,6.7-7.14,10.11-10.11,2.67-2.37,5.96-4.92,9.88-7.66,3.92-2.74,7.88-5.18,11.88-7.33,4-2.14,7.77-3.81,11.33-5,3.55-1.18,6.22-1.48,8-.89-4.44,8-8.52,15.62-12.22,22.88-1.63,3.11-3.19,6.3-4.66,9.55-1.48,3.26-2.89,6.41-4.22,9.44-1.33,3.04-2.48,5.89-3.44,8.55-.96,2.67-1.67,4.96-2.11,6.89-.74,4.59-.67,7.59.22,9,.89,1.41,2.07,2.11,3.55,2.11,2.81,0,5.78-1.52,8.88-4.55,3.11-3.03,6.07-6.62,8.88-10.77,2.81-4.14,5.33-8.4,7.55-12.77,2.22-4.37,3.92-7.81,5.11-10.33.89-1.92,1.89-2.63,3-2.11,1.11.52,1.15,1.89.11,4.11Zm-7.77-57.75c-1.19,1.78-2.63,3.59-4.33,5.44-1.7,1.85-3.67,3.52-5.89,5-2.22,1.48-4.7,2.67-7.44,3.55-2.74.89-5.66,1.26-8.77,1.11-2.96-.15-5.81-.59-8.55-1.33-2.74-.74-5.44-1.52-8.11-2.33-2.67-.81-5.33-1.55-8-2.22s-5.33-1.07-8-1.22c-3.41-.29-6.26.19-8.55,1.44-2.3,1.26-4.11,2.78-5.44,4.55-.15.3-.59.48-1.33.55-.74.08-1.48.08-2.22,0-.74-.07-1.41-.18-2-.33-.59-.15-.89-.37-.89-.67,2.52-3.25,6.03-6.48,10.55-9.66,4.52-3.18,9.88-4.63,16.1-4.33,2.81.15,5.59.52,8.33,1.11,2.74.59,5.48,1.3,8.22,2.11,2.74.82,5.4,1.55,8,2.22,2.59.67,5.22,1.08,7.88,1.22,3.7.3,6.74-.18,9.11-1.44,2.37-1.26,4.37-2.92,6-5,0-.15.33-.26,1-.33.67-.07,1.33-.11,2-.11s1.26.08,1.78.22c.52.15.7.3.56.44Zm-5.33,91.06c-1.04-2.07-1.52-4.55-1.44-7.44.07-2.89.92-6.11,2.55-9.66,1.78-3.7,3.33-7,4.66-9.88,1.33-2.89,2.67-5.66,4-8.33,1.33-2.67,2.74-5.4,4.22-8.22,1.48-2.81,3.18-6,5.11-9.55,2.81-5.33,5.25-9.03,7.33-11.11,2.07-2.07,4.89-3.03,8.44-2.89,1.48.15,3,.41,4.55.78,1.55.37,3.14.41,4.78.11-1.63.89-3.55,2.81-5.78,5.77-2.22,2.96-4.55,6.44-7,10.44-2.44,4-4.89,8.26-7.33,12.77-2.44,4.52-4.7,8.77-6.77,12.77-1.78,3.55-3.22,6.92-4.33,10.11-1.11,3.19-1.78,6.04-2,8.55-.22,2.52.04,4.55.78,6.11.74,1.55,2,2.55,3.78,3,1.03.3,2.67,0,4.89-.89s4.37-2.59,6.44-5.11c2.37-2.81,4.44-5.89,6.22-9.22,1.78-3.33,2.96-6.25,3.55-8.77,1.18-4.74,1.48-8.36.89-10.88-.59-2.52-2.96-3.63-7.11-3.33-.3,0-.33-.18-.11-.55.22-.37.59-.74,1.11-1.11.52-.37,1.15-.67,1.89-.89.74-.22,1.55-.18,2.44.11,2.67,1.04,4.78,3.33,6.33,6.89s1.81,7.33.78,11.33c-1.33,5.63-3.85,10.81-7.55,15.55-3.7,4.74-8.14,8.29-13.33,10.66-4.3,1.92-8.59,2.14-12.88.67-4.3-1.48-7.33-4.07-9.11-7.77Zm43.75-13.77c-2.96-.89-5.74-2.18-8.33-3.89-2.59-1.7-4.7-3.59-6.33-5.66-1.33-1.48-2.19-3.07-2.55-4.78-.37-1.7-.33-3.29.11-4.78.44-1.48,1.26-2.67,2.44-3.55,1.18-.89,2.67-1.33,4.44-1.33,1.63,0,3.14.67,4.55,2,1.41,1.33,2.11,2.81,2.11,4.44,0,.44-.19,1.11-.56,2-.37.89-.55,1.55-.55,2,.15,1.33.74,2.89,1.78,4.66,1.03,1.78,2.14,3.11,3.33,4,.89.74,2.4,1.37,4.55,1.89,2.14.52,4.55.37,7.22-.44,2.67-.81,5.4-2.59,8.22-5.33,2.81-2.74,5.4-7,7.77-12.77.74-2.07,1.7-2.81,2.89-2.22,1.18.59,1.26,2,.22,4.22-2.52,5.48-5.07,9.74-7.66,12.77-2.59,3.04-5.26,5.15-8,6.33-2.74,1.19-5.44,1.74-8.11,1.67-2.67-.07-5.18-.48-7.55-1.22Zm309.83-87.06c-2.37,4-5.52,7.44-9.44,10.33-3.93,2.89-8.22,5.26-12.88,7.11-4.66,1.85-9.4,3.22-14.21,4.11-4.81.89-9.29,1.41-13.44,1.55,3.7,1.19,7.74,2.7,12.1,4.55,4.37,1.85,8.55,4.07,12.55,6.66,4,2.59,7.59,5.59,10.77,9,3.18,3.41,5.37,7.18,6.55,11.33,1.92,6.81,2.14,13.14.67,18.99-1.48,5.85-4.22,11.22-8.22,16.1-4,4.89-8.96,9.14-14.88,12.77-5.92,3.63-12.33,6.59-19.21,8.88-6.88,2.29-13.96,3.89-21.21,4.78-7.26.89-14.21.89-20.88,0-14.07-1.78-25.73-4-34.98-6.66-9.25-2.67-17.29-5.55-24.1-8.66-8.59,6.37-17.62,10.88-27.1,13.55-9.48,2.67-19.32,3.33-29.54,2-7.55-.89-13.48-2.93-17.77-6.11-4.3-3.18-7.07-6.77-8.33-10.77-1.26-4-1.15-8,.33-11.99,1.48-4,4.22-7.36,8.22-10.11,4-2.74,9.18-4.4,15.55-5,6.37-.59,13.69.59,21.99,3.55,4.14,1.63,8.77,3.92,13.88,6.88,5.11,2.96,11.22,6.15,18.32,9.55,7.4-7.11,14.14-15.92,20.21-26.43,6.07-10.51,12.22-21.69,18.43-33.54,6.22-11.84,12.88-23.88,19.99-36.09,7.11-12.22,15.4-23.58,24.88-34.09l12.66-14.44c-12.44-2.07-25.95-3-40.53-2.78-14.59.22-29.43,1.96-44.53,5.22-10.22,2.22-19.29,5.41-27.21,9.55-7.92,4.15-14.62,8.77-20.1,13.88-5.48,5.11-9.66,10.44-12.55,15.99-2.89,5.55-4.44,10.81-4.66,15.77-.22,4.96.96,9.37,3.55,13.22,2.59,3.85,6.62,6.59,12.1,8.22,6.51,2.08,12.33,2.26,17.44.55,5.11-1.7,9.4-4.11,12.88-7.22,3.48-3.11,6.07-6.4,7.77-9.88,1.7-3.48,2.41-6.03,2.11-7.66,0-.29.26-.59.78-.89.52-.29,1.03-.44,1.55-.44s1.03.22,1.55.67c.52.44.78,1.26.78,2.44v.22c-.89,5.48-2.93,10.33-6.11,14.55-3.19,4.22-7,7.59-11.44,10.11-4.44,2.52-9.26,4.07-14.44,4.66-5.19.59-10.22,0-15.1-1.78-7.55-2.67-13.29-6.51-17.21-11.55-3.92-5.03-6.04-10.58-6.33-16.66-.3-6.07,1.11-12.44,4.22-19.1s7.92-12.96,14.44-18.88c6.51-5.92,14.69-11.11,24.54-15.55,9.85-4.44,21.28-7.62,34.32-9.55,15.55-2.22,30.76-3.14,45.64-2.78,14.88.37,28.84,1.96,41.87,4.78,1.92-1.63,3.96-3.11,6.11-4.44,2.14-1.33,4.18-2.37,6.11-3.11,3.55-1.48,5.48-1.7,5.78-.67.29,1.04-.89,2.37-3.55,4-1.48,1.04-2.85,2.15-4.11,3.33-1.26,1.19-2.04,2.08-2.33,2.67,9.47,2.52,17.91,5.59,25.32,9.22,7.4,3.63,13.25,7.77,17.55,12.44,4.29,4.66,6.77,9.85,7.44,15.55.67,5.7-.85,11.74-4.55,18.1Zm-160.14,96.62c-5.18-2.52-10.29-5.03-15.33-7.55-5.04-2.52-10.88-4.96-17.55-7.33-5.63-1.92-10.44-2.63-14.44-2.11-4,.52-7.15,1.82-9.44,3.89-2.3,2.08-3.7,4.55-4.22,7.44-.52,2.89-.15,5.74,1.11,8.55,1.26,2.81,3.37,5.22,6.33,7.22,2.96,2,6.89,3.14,11.77,3.44,8.14.3,15.66-.78,22.54-3.22,6.88-2.44,13.29-5.89,19.21-10.33Zm132.6-139.48c-2.96-1.48-6.22-2.78-9.77-3.89-3.55-1.11-7.26-2.11-11.11-3-7.41,10.22-14.85,21.69-22.32,34.43-7.48,12.74-14.92,25.47-22.32,38.2-7.41,12.74-14.81,24.91-22.21,36.54-7.41,11.63-14.81,21.43-22.21,29.43-1.48,1.48-2.89,2.85-4.22,4.11-1.33,1.26-2.74,2.55-4.22,3.89,6.96,2.96,14.8,5.63,23.54,8,8.74,2.37,18.88,4.14,30.43,5.33,9.62.89,18.55.15,26.76-2.22,8.22-2.37,15.36-5.7,21.43-9.99,6.07-4.29,10.92-9.29,14.55-14.99,3.63-5.7,5.66-11.44,6.11-17.21.44-5.78-.85-11.29-3.89-16.55-3.04-5.25-8.11-9.58-15.21-12.99-4.3-2.07-8.77-3.85-13.44-5.33-4.66-1.48-8.96-2.85-12.88-4.11-3.92-1.26-7.26-2.41-9.99-3.44-2.74-1.03-4.41-2.14-5-3.33,0-1.92.85-3.14,2.55-3.66,1.7-.52,4.03-.74,7-.67,2.96.08,6.4.3,10.33.67,3.92.37,8.03.55,12.33.55,4.59,0,9.33-1.07,14.21-3.22,4.89-2.14,9.33-4.89,13.33-8.22,4-3.33,7.33-7.14,10-11.44,2.67-4.29,4.11-8.62,4.33-12.99.22-4.37-1.04-8.62-3.78-12.77-2.74-4.14-7.52-7.85-14.33-11.1Zm115.49,110.38c-1.63,3.41-3.67,7.41-6.11,11.99-2.44,4.59-5.15,9.03-8.11,13.33-2.96,4.3-6.11,7.96-9.44,10.99-3.33,3.04-6.63,4.7-9.88,5-1.78.15-3.7-.19-5.77-1-2.08-.81-3.78-2.29-5.11-4.44-1.33-2.14-2.11-5.11-2.33-8.88-.22-3.78.48-8.55,2.11-14.33-1.78,2.96-4.07,6.41-6.88,10.33-2.81,3.92-5.85,7.44-9.11,10.55-4.3,4.15-8.26,6.59-11.88,7.33-3.63.74-6.7.18-9.22-1.67-2.52-1.85-4.33-4.78-5.44-8.77-1.11-4-1.3-8.7-.56-14.1.74-5.4,2.55-11.33,5.44-17.77,2.89-6.44,7.14-12.99,12.77-19.66,3.25-4,7.22-7.4,11.88-10.22,4.66-2.81,9.4-4.81,14.21-6,4.81-1.18,9.47-1.33,13.99-.44,4.51.89,8.33,3.04,11.44,6.44,1.63,1.63,2.11,3.19,1.44,4.66-.67,1.48-1.96,2.08-3.89,1.78-1.19-4.14-3.59-6.66-7.22-7.55-3.63-.89-7.52-.22-11.66,2-5.04,2.81-10.22,7.15-15.55,12.99-5.33,5.85-9.99,12.1-13.99,18.77-.44.74-1.11,1.93-2,3.55-.89,1.63-1.81,3.52-2.78,5.66-.96,2.15-1.85,4.37-2.67,6.66-.82,2.3-1.37,4.48-1.67,6.55-.59,3.85-.33,6.66.78,8.44,1.11,1.78,2.67,2.67,4.66,2.67s4.33-.85,7-2.55c2.67-1.7,5.33-4.11,8-7.22,3.85-4.74,7.36-9.73,10.55-14.99,3.18-5.25,6.25-10.62,9.22-16.1,2.52-4.74,4.78-8.36,6.77-10.88,2-2.52,4.77-3.63,8.33-3.33,1.48.15,3,.41,4.55.78,1.55.37,3.14.41,4.78.11-1.19,1.19-2.78,3.37-4.78,6.55-2,3.19-4.07,6.81-6.22,10.88-2.15,4.07-4.11,8.26-5.89,12.55-1.78,4.3-3.04,8.14-3.78,11.55-1.78,8.88-1.04,13.33,2.22,13.33,2.37.15,4.96-1.26,7.77-4.22,2.81-2.96,5.59-6.51,8.33-10.66,2.74-4.14,5.22-8.33,7.44-12.55,2.22-4.22,3.92-7.51,5.11-9.88,1.03-1.92,2.07-2.67,3.11-2.22,1.03.44,1.03,1.78,0,4Zm59.3.22c-2.67,5.77-5.33,11.18-8,16.21-2.67,5.04-5.66,9.44-9,13.22-3.33,3.78-7.18,6.74-11.55,8.88-4.37,2.15-9.59,3.22-15.66,3.22s-10.37-1.03-13.77-3.11c-3.41-2.07-5.85-4.78-7.33-8.11-1.48-3.33-2.11-7.14-1.89-11.44.22-4.29,1.03-8.73,2.44-13.33,1.41-4.59,3.25-9.11,5.55-13.55,2.29-4.44,4.77-8.44,7.44-11.99,4.14-5.63,8.81-9.96,13.99-12.99,5.18-3.03,10.44-4.55,15.77-4.55,5.62,0,9.73,1.41,12.33,4.22,2.59,2.81,3.59,6.52,3,11.1-.3,1.78-1,3.63-2.11,5.55-1.11,1.93-2.41,3.55-3.89,4.89-1.48,1.33-3.04,2.19-4.66,2.55-1.63.37-3.04-.03-4.22-1.22,1.18-1.48,2.48-3.22,3.89-5.22,1.41-2,2.4-4.03,3-6.11,1.03-3.85,1.07-6.62.11-8.33-.96-1.7-2.48-2.55-4.55-2.55s-4.15.59-6.22,1.78c-2.08,1.19-4.19,2.67-6.33,4.44-2.15,1.78-4.18,3.81-6.11,6.11-1.93,2.3-3.63,4.55-5.11,6.77-1.04,1.48-2.26,3.48-3.67,6-1.41,2.52-2.74,5.3-4,8.33-1.26,3.04-2.33,6.26-3.22,9.66-.89,3.41-1.33,6.74-1.33,10,0,4.44,1,8.4,3,11.88,2,3.48,5.37,5.22,10.11,5.22s9.22-1.22,12.99-3.67c3.78-2.44,7.22-5.55,10.33-9.33s5.92-7.96,8.44-12.55c2.52-4.59,4.89-9.11,7.11-13.55,1.03-2.07,2.07-2.89,3.11-2.44,1.03.44,1.03,1.78,0,4Z"></path> </g> </svg> 